<svg width="32" height="32" viewBox="0 0 32 32" fill="none" xmlns="http://www.w3.org/2000/svg">
<rect x="0.560239" y="9.20172" width="4.80098" height="13.6028" rx="2.40049" fill="#0E1821" stroke="#0E1821" stroke-width="0.480098"/>
<mask id="path-2-inside-1_0_315" fill="white">
<path fill-rule="evenodd" clip-rule="evenodd" d="M5.60128 16.6432H3.84099C2.95715 16.6432 2.24066 15.9267 2.24066 15.0429V9.06105C2.46957 8.99631 2.71111 8.96167 2.96075 8.96167C4.41907 8.96167 5.60128 10.1439 5.60128 11.6022V16.6432Z"/>
</mask>
<path fill-rule="evenodd" clip-rule="evenodd" d="M5.60128 16.6432H3.84099C2.95715 16.6432 2.24066 15.9267 2.24066 15.0429V9.06105C2.46957 8.99631 2.71111 8.96167 2.96075 8.96167C4.41907 8.96167 5.60128 10.1439 5.60128 11.6022V16.6432Z" fill="white"/>
<path d="M5.60128 16.6432V17.1233H6.08138V16.6432H5.60128ZM2.24066 9.06105L2.11001 8.59907L1.76056 8.6979V9.06105H2.24066ZM5.60128 16.1631H3.84099V17.1233H5.60128V16.1631ZM3.84099 16.1631C3.2223 16.1631 2.72076 15.6616 2.72076 15.0429H1.76056C1.76056 16.1919 2.692 17.1233 3.84099 17.1233V16.1631ZM2.72076 15.0429V9.06105H1.76056V15.0429H2.72076ZM2.37131 9.52303C2.55813 9.47019 2.75572 9.44177 2.96075 9.44177V8.48157C2.6665 8.48157 2.38101 8.52243 2.11001 8.59907L2.37131 9.52303ZM2.96075 9.44177C4.15392 9.44177 5.12119 10.409 5.12119 11.6022H6.08138C6.08138 9.87873 4.68422 8.48157 2.96075 8.48157V9.44177ZM5.12119 11.6022V16.6432H6.08138V11.6022H5.12119Z" fill="#0E1821" mask="url(#path-2-inside-1_0_315)"/>
<rect x="26.4854" y="9.20172" width="4.80098" height="13.6028" rx="2.40049" fill="#0E1821" stroke="#0E1821" stroke-width="0.480098"/>
<path d="M5.36114 13.6824H15.0431C15.5292 13.6824 15.9233 14.0765 15.9233 14.5626V17.2832C15.9233 18.1228 15.2426 18.8035 14.403 18.8035H5.36114V13.6824Z" fill="#4878A6" stroke="#0E1821" stroke-width="0.480098"/>
<mask id="path-6-inside-2_0_315" fill="white">
<path fill-rule="evenodd" clip-rule="evenodd" d="M26.2453 16.643H28.0056C28.8894 16.643 29.6059 15.9265 29.6059 15.0427V9.0608C29.377 8.99606 29.1355 8.96143 28.8858 8.96143C27.4275 8.96143 26.2453 10.1436 26.2453 11.602V16.643Z"/>
</mask>
<path fill-rule="evenodd" clip-rule="evenodd" d="M26.2453 16.643H28.0056C28.8894 16.643 29.6059 15.9265 29.6059 15.0427V9.0608C29.377 8.99606 29.1355 8.96143 28.8858 8.96143C27.4275 8.96143 26.2453 10.1436 26.2453 11.602V16.643Z" fill="white"/>
<path d="M26.2453 16.643V17.1231H25.7652V16.643H26.2453ZM29.6059 9.0608L29.7365 8.59882L30.086 8.69764V9.0608H29.6059ZM26.2453 16.1629H28.0056V17.1231H26.2453V16.1629ZM28.0056 16.1629C28.6243 16.1629 29.1258 15.6614 29.1258 15.0427H30.086C30.086 16.1917 29.1546 17.1231 28.0056 17.1231V16.1629ZM29.1258 15.0427V9.0608H30.086V15.0427H29.1258ZM29.4752 9.52278C29.2884 9.46995 29.0909 9.44152 28.8858 9.44152V8.48133C29.1801 8.48133 29.4656 8.52218 29.7365 8.59882L29.4752 9.52278ZM28.8858 9.44152C27.6927 9.44152 26.7254 10.4088 26.7254 11.602H25.7652C25.7652 9.87848 27.1624 8.48133 28.8858 8.48133V9.44152ZM26.7254 11.602V16.643H25.7652V11.602H26.7254Z" fill="#0E1821" mask="url(#path-6-inside-2_0_315)"/>
<path d="M26.4854 13.6824H16.8034C16.3173 13.6824 15.9233 14.0765 15.9233 14.5626V17.2832C15.9233 18.1228 16.6039 18.8035 17.4436 18.8035H26.4854V13.6824Z" fill="#4878A6" stroke="#0E1821" stroke-width="0.480098"/>
<line x1="5.60083" y1="16.4033" x2="26.245" y2="16.4033" stroke="#0E1821" stroke-width="0.480098"/>
<rect x="12.3225" y="17.123" width="0.960195" height="3.52072" rx="0.480098" transform="rotate(90 12.3225 17.123)" fill="white"/>
<rect x="23.0444" y="17.123" width="0.960195" height="3.52072" rx="0.480098" transform="rotate(90 23.0444 17.123)" fill="white"/>
<line x1="6.96142" y1="14.9628" x2="14.1629" y2="14.9628" stroke="#0E1821" stroke-width="0.480098" stroke-linecap="round"/>
<line x1="17.6837" y1="14.9628" x2="24.8851" y2="14.9628" stroke="#0E1821" stroke-width="0.480098" stroke-linecap="round"/>
</svg>
