<svg width="32" height="32" viewBox="0 0 32 32" fill="none" xmlns="http://www.w3.org/2000/svg">
<g clip-path="url(#clip0_0_333)">
<path d="M8.70575 22.7776C9.21741 23.0387 10.4799 23.2518 11.4366 22.0147" stroke="black" stroke-width="0.48"/>
<rect x="9.9374" y="20.2207" width="11.84" height="3.36" rx="1.04" transform="rotate(-30 9.9374 20.2207)" fill="#F15152" stroke="#0E1821" stroke-width="0.48"/>
<path d="M24.5519 13.6938L23.9245 12.607C23.7478 12.3009 23.8526 11.9095 24.1587 11.7327L26.7915 10.2127C27.0976 10.036 27.489 10.1409 27.6657 10.447L28.2932 11.5338C28.378 11.6808 28.401 11.8555 28.3571 12.0194L27.8008 14.0958C27.7093 14.4372 27.3583 14.6398 27.0169 14.5483L24.9406 13.992C24.7766 13.948 24.6368 13.8408 24.5519 13.6938Z" fill="white" stroke="#0E1821" stroke-width="0.48"/>
<path d="M5.43364 24.7399L4.80267 23.647C4.62593 23.3409 4.73081 22.9495 5.03692 22.7728L7.53108 21.3328C7.83718 21.156 8.2286 21.2609 8.40533 21.567L9.03631 22.6599C9.11909 22.8033 9.14308 22.9732 9.10326 23.1339L8.60387 25.1489C8.51657 25.5012 8.15412 25.7104 7.80539 25.6099L5.81062 25.0349C5.65154 24.989 5.51642 24.8833 5.43364 24.7399Z" fill="white" stroke="#0E1821" stroke-width="0.48"/>
<path d="M30.1327 7.35998L1.03424 24.16C0.728129 24.3367 0.623249 24.7281 0.79998 25.0342C0.976712 25.3403 1.36813 25.4452 1.67424 25.2685L2.46384 24.8126C3.14339 24.4203 3.87892 24.1341 4.64494 23.964L4.78913 23.932C5.65072 23.7407 6.478 23.4188 7.24233 22.9775L26.0046 12.1451C26.7689 11.7038 27.4613 11.1483 28.0578 10.4978L28.1576 10.389C28.6879 9.81061 29.3035 9.31671 29.9831 8.92437L30.7727 8.46849C31.0788 8.29176 31.1837 7.90034 31.0069 7.59424C30.8302 7.28813 30.4388 7.18325 30.1327 7.35998Z" fill="#4878A6" stroke="#0E1821" stroke-width="0.48"/>
<circle cx="28.3804" cy="16.0081" r="1.36157" transform="rotate(-30 28.3804 16.0081)" fill="white"/>
<mask id="path-7-inside-1_0_333" fill="white">
<path d="M31.2441 14.3548C32.1572 15.9364 31.6153 17.9587 30.0338 18.8718C28.4522 19.7849 26.4299 19.2431 25.5168 17.6615C24.6037 16.08 25.1456 14.0576 26.7271 13.1445C28.3087 12.2314 30.331 12.7733 31.2441 14.3548ZM27.4487 16.5461C27.7458 17.0608 28.4038 17.2371 28.9184 16.94C29.433 16.6429 29.6094 15.9848 29.3122 15.4702C29.0151 14.9556 28.3571 14.7793 27.8425 15.0764C27.3279 15.3735 27.1515 16.0315 27.4487 16.5461Z"/>
</mask>
<path d="M31.2441 14.3548C32.1572 15.9364 31.6153 17.9587 30.0338 18.8718C28.4522 19.7849 26.4299 19.2431 25.5168 17.6615C24.6037 16.08 25.1456 14.0576 26.7271 13.1445C28.3087 12.2314 30.331 12.7733 31.2441 14.3548ZM27.4487 16.5461C27.7458 17.0608 28.4038 17.2371 28.9184 16.94C29.433 16.6429 29.6094 15.9848 29.3122 15.4702C29.0151 14.9556 28.3571 14.7793 27.8425 15.0764C27.3279 15.3735 27.1515 16.0315 27.4487 16.5461Z" fill="#0E1821" stroke="#0E1821" stroke-width="0.96" mask="url(#path-7-inside-1_0_333)"/>
<circle cx="9.17708" cy="27.095" r="1.36157" transform="rotate(-30 9.17708 27.095)" fill="white"/>
<mask id="path-9-inside-2_0_333" fill="white">
<path d="M12.0407 25.4418C12.9539 27.0233 12.412 29.0456 10.8304 29.9587C9.24886 30.8719 7.22654 30.33 6.31343 28.7484C5.40032 27.1669 5.9422 25.1445 7.52375 24.2314C9.10531 23.3183 11.1276 23.8602 12.0407 25.4418ZM8.24529 27.6331C8.54241 28.1477 9.20044 28.324 9.71506 28.0269C10.2297 27.7298 10.406 27.0717 10.1089 26.5571C9.81176 26.0425 9.15373 25.8662 8.63912 26.1633C8.1245 26.4604 7.94818 27.1184 8.24529 27.6331Z"/>
</mask>
<path d="M12.0407 25.4418C12.9539 27.0233 12.412 29.0456 10.8304 29.9587C9.24886 30.8719 7.22654 30.33 6.31343 28.7484C5.40032 27.1669 5.9422 25.1445 7.52375 24.2314C9.10531 23.3183 11.1276 23.8602 12.0407 25.4418ZM8.24529 27.6331C8.54241 28.1477 9.20044 28.324 9.71506 28.0269C10.2297 27.7298 10.406 27.0717 10.1089 26.5571C9.81176 26.0425 9.15373 25.8662 8.63912 26.1633C8.1245 26.4604 7.94818 27.1184 8.24529 27.6331Z" fill="#0E1821" stroke="#0E1821" stroke-width="0.96" mask="url(#path-9-inside-2_0_333)"/>
<circle cx="9.11999" cy="8.32006" r="5.52" fill="white" stroke="#0E1821" stroke-width="0.48"/>
<path d="M7.8503 4.50315C7.86591 4.45028 7.89828 4.40387 7.94258 4.37086C7.98688 4.33786 8.04073 4.32004 8.09605 4.32007H10.1439C10.1845 4.3201 10.2244 4.32972 10.2605 4.34814C10.2966 4.36656 10.3277 4.39325 10.3514 4.42601C10.3751 4.45878 10.3907 4.49668 10.3968 4.5366C10.4029 4.57652 10.3994 4.61732 10.3866 4.65563L9.47529 7.37989H11.4238C11.4718 7.37985 11.5188 7.39323 11.5594 7.41849C11.6001 7.44375 11.6329 7.47988 11.6539 7.52277C11.675 7.56566 11.6836 7.61358 11.6786 7.66108C11.6737 7.70858 11.6555 7.75374 11.6261 7.79143L8.04229 12.3812C8.00558 12.4284 7.95338 12.4613 7.8948 12.4741C7.83621 12.4869 7.77497 12.4789 7.72176 12.4513C7.66855 12.4237 7.62674 12.3784 7.60363 12.3233C7.58053 12.2682 7.5776 12.2067 7.59535 12.1496L8.5174 9.16478H6.81613C6.77633 9.1648 6.73708 9.15558 6.70148 9.13785C6.66589 9.12012 6.63493 9.09437 6.61108 9.06263C6.58722 9.0309 6.57113 8.99407 6.56406 8.95505C6.557 8.91604 6.55916 8.87592 6.57039 8.83789L7.8503 4.50315ZM8.28752 4.83004L7.15813 8.65481H8.864C8.90406 8.6548 8.94356 8.66416 8.97933 8.68213C9.0151 8.7001 9.04613 8.72618 9.06994 8.75828C9.09374 8.79037 9.10965 8.82759 9.11639 8.86692C9.12312 8.90626 9.1205 8.94662 9.10872 8.98476L8.49538 10.9701L10.9006 7.88986H9.11998C9.07944 7.88983 9.03949 7.8802 9.00342 7.86179C8.96734 7.84337 8.93617 7.81667 8.91247 7.78391C8.88878 7.75114 8.87323 7.71324 8.86712 7.67332C8.86101 7.6334 8.8645 7.59261 8.87731 7.5543L9.78861 4.83004H8.28752Z" fill="#F15152"/>
</g>
<defs>
<clipPath id="clip0_0_333">
<rect width="32" height="32" fill="white"/>
</clipPath>
</defs>
</svg>
