<svg width="32" height="32" viewBox="0 0 32 32" fill="none" xmlns="http://www.w3.org/2000/svg">
<path d="M8.8021 25.6048C8.8021 27.9912 6.86757 29.9257 4.48122 29.9257C2.09486 29.9257 0.160339 27.9912 0.160339 25.6048C0.160339 23.2185 2.09486 21.2839 4.48122 21.2839C6.86757 21.2839 8.8021 23.2185 8.8021 25.6048ZM2.24522 25.6048C2.24522 26.8397 3.24631 27.8408 4.48122 27.8408C5.71613 27.8408 6.71722 26.8397 6.71722 25.6048C6.71722 24.3699 5.71613 23.3688 4.48122 23.3688C3.24631 23.3688 2.24522 24.3699 2.24522 25.6048Z" fill="#0E1821"/>
<circle cx="4.48118" cy="25.6051" r="2.16044" stroke="#0E1821" stroke-width="0.480098"/>
<circle cx="4.48122" cy="25.6048" r="4.08083" stroke="#0E1821" stroke-width="0.480098"/>
<path d="M31.8465 25.6048C31.8465 27.9912 29.912 29.9257 27.5257 29.9257C25.1393 29.9257 23.2048 27.9912 23.2048 25.6048C23.2048 23.2185 25.1393 21.2839 27.5257 21.2839C29.912 21.2839 31.8465 23.2185 31.8465 25.6048ZM25.2897 25.6048C25.2897 26.8397 26.2907 27.8408 27.5257 27.8408C28.7606 27.8408 29.7617 26.8397 29.7617 25.6048C29.7617 24.3699 28.7606 23.3688 27.5257 23.3688C26.2907 23.3688 25.2897 24.3699 25.2897 25.6048Z" fill="#0E1821"/>
<circle cx="27.5258" cy="25.6051" r="2.16044" stroke="#0E1821" stroke-width="0.480098"/>
<circle cx="27.5257" cy="25.6048" r="4.08083" stroke="#0E1821" stroke-width="0.480098"/>
<path d="M22.2449 22.5645H10.4025L10.6425 25.6851H19.6844L22.2449 22.5645Z" fill="#F15152" stroke="#0E1821" stroke-width="0.480098" stroke-linecap="round" stroke-linejoin="round"/>
<path d="M4.83399 18.6512L4.84432 18.6527L4.85473 18.6532C8.18297 18.829 10.8919 21.3432 11.3683 24.5831C11.4286 24.9936 11.0868 25.3647 10.6226 25.3647C10.1791 25.3647 9.79196 24.9948 9.68825 24.5025C9.18064 22.0932 7.04341 20.2843 4.48301 20.2835L1.68412 20.2437L1.68412 20.2437H1.68071C1.2388 20.2437 0.880552 19.8854 0.880552 19.4435C0.880552 19.0016 1.2388 18.6434 1.68071 18.6434H4.72133C4.7597 18.6434 4.7973 18.6461 4.83399 18.6512Z" fill="#2A5275" stroke="#0E1821" stroke-width="0.480098"/>
<path d="M23.2929 3.96036L23.259 3.76042H23.0562L21.3647 3.76042V2.6402H24.0053C24.1044 2.6402 24.1901 2.70046 24.2266 2.78696L25.4709 10.007L24.3498 10.197L23.2929 3.96036Z" fill="#4878A6" stroke="#0E1821" stroke-width="0.480098"/>
<mask id="path-10-inside-1_0_318" fill="white">
<path fill-rule="evenodd" clip-rule="evenodd" d="M26.5003 16.3562C26.001 15.9982 25.3061 16.1127 24.9481 16.612L19.3034 24.4846L4.6411 24.4846C4.02242 24.4846 3.52087 24.9861 3.52087 25.6048C3.52087 26.2235 4.02242 26.725 4.6411 26.725H19.8442C20.175 26.725 20.4724 26.5816 20.6774 26.3536C20.7267 26.3065 20.7723 26.2542 20.8134 26.1968L26.7562 17.9084C27.1142 17.4091 26.9996 16.7142 26.5003 16.3562Z"/>
</mask>
<path fill-rule="evenodd" clip-rule="evenodd" d="M26.5003 16.3562C26.001 15.9982 25.3061 16.1127 24.9481 16.612L19.3034 24.4846L4.6411 24.4846C4.02242 24.4846 3.52087 24.9861 3.52087 25.6048C3.52087 26.2235 4.02242 26.725 4.6411 26.725H19.8442C20.175 26.725 20.4724 26.5816 20.6774 26.3536C20.7267 26.3065 20.7723 26.2542 20.8134 26.1968L26.7562 17.9084C27.1142 17.4091 26.9996 16.7142 26.5003 16.3562Z" fill="#4878A6"/>
<path d="M24.9481 16.612L24.5579 16.3323V16.3323L24.9481 16.612ZM26.5003 16.3562L26.7801 15.966L26.5003 16.3562ZM19.3034 24.4846V24.9647H19.5499L19.6936 24.7643L19.3034 24.4846ZM4.6411 24.4846V24.0045V24.4846ZM20.6774 26.3536L20.3456 26.0066L20.3325 26.0191L20.3204 26.0326L20.6774 26.3536ZM20.8134 26.1968L20.4233 25.917L20.4233 25.917L20.8134 26.1968ZM26.7562 17.9084L27.1464 18.1882L27.1464 18.1882L26.7562 17.9084ZM25.3382 16.8918C25.5417 16.6079 25.9368 16.5428 26.2206 16.7463L26.7801 15.966C26.0653 15.4535 25.0704 15.6175 24.5579 16.3323L25.3382 16.8918ZM19.6936 24.7643L25.3382 16.8918L24.5579 16.3323L18.9133 24.2048L19.6936 24.7643ZM4.6411 24.9647L19.3034 24.9647V24.0045L4.6411 24.0045V24.9647ZM4.00097 25.6048C4.00097 25.2513 4.28757 24.9647 4.6411 24.9647V24.0045C3.75727 24.0045 3.04078 24.721 3.04078 25.6048H4.00097ZM4.6411 26.2449C4.28757 26.2449 4.00097 25.9583 4.00097 25.6048H3.04078C3.04078 26.4886 3.75726 27.2051 4.6411 27.2051V26.2449ZM19.8442 26.2449H4.6411V27.2051H19.8442V26.2449ZM20.3204 26.0326C20.2026 26.1636 20.0332 26.2449 19.8442 26.2449V27.2051C20.3168 27.2051 20.7421 26.9996 21.0344 26.6746L20.3204 26.0326ZM20.4233 25.917C20.3995 25.9501 20.3735 25.9799 20.3456 26.0066L21.0092 26.7006C21.0799 26.633 21.145 26.5582 21.2036 26.4765L20.4233 25.917ZM26.366 17.6287L20.4233 25.917L21.2036 26.4765L27.1464 18.1882L26.366 17.6287ZM26.2206 16.7463C26.5044 16.9498 26.5695 17.3449 26.366 17.6287L27.1464 18.1882C27.6589 17.4734 27.4949 16.4785 26.7801 15.966L26.2206 16.7463Z" fill="#0E1821" mask="url(#path-10-inside-1_0_318)"/>
<rect x="24.026" y="10.0916" width="1.74476" height="16.4546" rx="0.872381" transform="rotate(-9.61845 24.026 10.0916)" fill="#4878A6" stroke="#0E1821" stroke-width="0.480098"/>
<rect x="21.3644" y="2.32013" width="1.76036" height="4.64094" rx="0.880179" transform="rotate(90 21.3644 2.32013)" fill="#2A5275" stroke="#0E1821" stroke-width="0.480098"/>
<path d="M26.0058 2.80005L24.4055 3.68023L24.8055 6.16073H26.5659L26.0058 2.80005Z" fill="#4878A6" stroke="#0E1821" stroke-width="0.480098" stroke-linecap="round" stroke-linejoin="round"/>
<path fill-rule="evenodd" clip-rule="evenodd" d="M26.4729 5.6006L26.1362 3.58055C26.2456 3.54152 26.3633 3.52026 26.4861 3.52026C27.0606 3.52026 27.5263 3.98598 27.5263 4.56047C27.5263 5.13497 27.0606 5.60069 26.4861 5.60069C26.4817 5.60069 26.4773 5.60066 26.4729 5.6006Z" fill="#FBB13C"/>
<path d="M26.4729 5.6006L26.2361 5.64007L26.2691 5.83814L26.4699 5.84064L26.4729 5.6006ZM26.1362 3.58055L26.0555 3.35448L25.8664 3.42199L25.8994 3.62002L26.1362 3.58055ZM26.7097 5.56114L26.373 3.54109L25.8994 3.62002L26.2361 5.64007L26.7097 5.56114ZM26.2169 3.80662C26.3007 3.77671 26.3912 3.76031 26.4861 3.76031V3.28021C26.3354 3.28021 26.1904 3.30633 26.0555 3.35448L26.2169 3.80662ZM26.4861 3.76031C26.928 3.76031 27.2862 4.11856 27.2862 4.56047H27.7663C27.7663 3.85341 27.1931 3.28021 26.4861 3.28021V3.76031ZM27.2862 4.56047C27.2862 5.00239 26.928 5.36064 26.4861 5.36064V5.84074C27.1931 5.84074 27.7663 5.26754 27.7663 4.56047H27.2862ZM26.4861 5.36064C26.4827 5.36064 26.4793 5.36062 26.4759 5.36057L26.4699 5.84064C26.4753 5.8407 26.4807 5.84074 26.4861 5.84074V5.36064Z" fill="#0E1821"/>
<circle cx="16.0034" cy="15.2028" r="5.52112" fill="white" stroke="#0E1821" stroke-width="0.480098"/>
<path d="M14.7333 11.3853C14.7489 11.3324 14.7813 11.286 14.8256 11.253C14.8699 11.2199 14.9238 11.2021 14.9791 11.2021H17.0274C17.0679 11.2022 17.1079 11.2118 17.144 11.2302C17.1801 11.2486 17.2112 11.2753 17.2349 11.3081C17.2586 11.3409 17.2742 11.3788 17.2803 11.4187C17.2864 11.4587 17.2829 11.4995 17.2701 11.5378L16.3586 14.2626H18.3076C18.3555 14.2626 18.4025 14.2759 18.4432 14.3012C18.4839 14.3265 18.5166 14.3626 18.5377 14.4055C18.5588 14.4484 18.5674 14.4963 18.5624 14.5438C18.5575 14.5913 18.5393 14.6365 18.5098 14.6742L14.9253 19.2649C14.8886 19.3121 14.8364 19.345 14.7778 19.3579C14.7192 19.3707 14.658 19.3626 14.6047 19.335C14.5515 19.3075 14.5097 19.2622 14.4866 19.207C14.4635 19.1519 14.4606 19.0904 14.4783 19.0333L15.4005 16.0478H13.6989C13.6591 16.0479 13.6199 16.0386 13.5843 16.0209C13.5487 16.0032 13.5177 15.9774 13.4938 15.9457C13.47 15.9139 13.4539 15.8771 13.4468 15.8381C13.4397 15.7991 13.4419 15.7589 13.4531 15.7209L14.7333 11.3853ZM15.1706 11.7122L14.041 15.5378H15.7472C15.7873 15.5378 15.8268 15.5471 15.8626 15.5651C15.8983 15.5831 15.9294 15.6092 15.9532 15.6413C15.977 15.6734 15.9929 15.7106 15.9997 15.7499C16.0064 15.7893 16.0038 15.8296 15.992 15.8678L15.3785 17.8535L17.7842 14.7727H16.0033C15.9627 14.7726 15.9227 14.763 15.8867 14.7446C15.8506 14.7262 15.8194 14.6995 15.7957 14.6667C15.772 14.6339 15.7565 14.596 15.7503 14.5561C15.7442 14.5162 15.7477 14.4754 15.7605 14.437L16.672 11.7122H15.1706Z" fill="#F15152"/>
</svg>
