<svg width="32" height="32" viewBox="0 0 32 32" fill="none" xmlns="http://www.w3.org/2000/svg">
<g clip-path="url(#clip0_0_324)">
<rect x="15.2854" y="2.71724" width="1.50071" height="17.4971" fill="#4878A6" stroke="#070C11" stroke-width="0.463768"/>
<rect x="2.65663" y="19.8369" width="4.16678" height="11.8844" rx="2.08339" fill="#070C11" stroke="#070C11" stroke-width="0.463768"/>
<mask id="path-3-inside-1_0_324" fill="white">
<path fill-rule="evenodd" clip-rule="evenodd" d="M7.05528 26.3396H5.65441C4.80064 26.3396 4.10852 25.6475 4.10852 24.7937V19.6914C4.30926 19.6346 4.52108 19.6042 4.74 19.6042C6.01869 19.6042 7.05528 20.6408 7.05528 21.9195V26.3396Z"/>
</mask>
<path fill-rule="evenodd" clip-rule="evenodd" d="M7.05528 26.3396H5.65441C4.80064 26.3396 4.10852 25.6475 4.10852 24.7937V19.6914C4.30926 19.6346 4.52108 19.6042 4.74 19.6042C6.01869 19.6042 7.05528 20.6408 7.05528 21.9195V26.3396Z" fill="white"/>
<path d="M7.05528 26.3396V26.8034H7.51904V26.3396H7.05528ZM4.10852 19.6914L3.98229 19.2452L3.64475 19.3406V19.6914H4.10852ZM7.05528 25.8758H5.65441V26.8034H7.05528V25.8758ZM5.65441 25.8758C5.05677 25.8758 4.57229 25.3913 4.57229 24.7937H3.64475C3.64475 25.9036 4.54451 26.8034 5.65441 26.8034V25.8758ZM4.57229 24.7937V19.6914H3.64475V24.7937H4.57229ZM4.23475 20.1377C4.39482 20.0924 4.56418 20.068 4.74 20.068V19.1405C4.47799 19.1405 4.2237 19.1769 3.98229 19.2452L4.23475 20.1377ZM4.74 20.068C5.76256 20.068 6.59151 20.897 6.59151 21.9195H7.51904C7.51904 20.3847 6.27483 19.1405 4.74 19.1405V20.068ZM6.59151 21.9195V26.3396H7.51904V21.9195H6.59151Z" fill="#070C11" mask="url(#path-3-inside-1_0_324)"/>
<rect x="25.3883" y="19.8361" width="4.16678" height="11.8844" rx="2.08339" fill="#070C11" stroke="#070C11" stroke-width="0.463768"/>
<mask id="path-6-inside-2_0_324" fill="white">
<path fill-rule="evenodd" clip-rule="evenodd" d="M25.1563 26.3396H26.5571C27.4109 26.3396 28.103 25.6475 28.103 24.7937V19.6914C27.9023 19.6346 27.6905 19.6042 27.4716 19.6042C26.1929 19.6042 25.1563 20.6408 25.1563 21.9195V26.3396Z"/>
</mask>
<path fill-rule="evenodd" clip-rule="evenodd" d="M25.1563 26.3396H26.5571C27.4109 26.3396 28.103 25.6475 28.103 24.7937V19.6914C27.9023 19.6346 27.6905 19.6042 27.4716 19.6042C26.1929 19.6042 25.1563 20.6408 25.1563 21.9195V26.3396Z" fill="white"/>
<path d="M25.1563 26.3396V26.8034H24.6925V26.3396H25.1563ZM28.103 19.6914L28.2292 19.2451L28.5668 19.3406V19.6914H28.103ZM25.1563 25.8758H26.5571V26.8034H25.1563V25.8758ZM26.5571 25.8758C27.1548 25.8758 27.6393 25.3913 27.6393 24.7937H28.5668C28.5668 25.9036 27.667 26.8034 26.5571 26.8034V25.8758ZM27.6393 24.7937V19.6914H28.5668V24.7937H27.6393ZM27.9768 20.1377C27.8167 20.0924 27.6474 20.068 27.4716 20.068V19.1405C27.7336 19.1405 27.9879 19.1769 28.2292 19.2451L27.9768 20.1377ZM27.4716 20.068C26.449 20.068 25.6201 20.897 25.6201 21.9195H24.6925C24.6925 20.3847 25.9368 19.1405 27.4716 19.1405V20.068ZM25.6201 21.9195V26.3396H24.6925V21.9195H25.6201Z" fill="#070C11" mask="url(#path-6-inside-2_0_324)"/>
<line x1="6.63434" y1="28.2127" x2="25.2968" y2="28.2127" stroke="#070C11" stroke-width="0.463768"/>
<mask id="path-9-inside-3_0_324" fill="white">
<path fill-rule="evenodd" clip-rule="evenodd" d="M16.0356 19.7446C14.8732 19.7446 13.9308 20.687 13.9308 21.8494V23.5333H6.63428V26.3397H25.5774V23.5333H18.1404V21.8494C18.1404 20.687 17.1981 19.7446 16.0356 19.7446Z"/>
</mask>
<path fill-rule="evenodd" clip-rule="evenodd" d="M16.0356 19.7446C14.8732 19.7446 13.9308 20.687 13.9308 21.8494V23.5333H6.63428V26.3397H25.5774V23.5333H18.1404V21.8494C18.1404 20.687 17.1981 19.7446 16.0356 19.7446Z" fill="#2A5275"/>
<path d="M13.9308 23.5333V23.9971H14.3946V23.5333H13.9308ZM6.63428 23.5333V23.0695H6.17051V23.5333H6.63428ZM6.63428 26.3397H6.17051V26.8035H6.63428V26.3397ZM25.5774 26.3397V26.8035H26.0412V26.3397H25.5774ZM25.5774 23.5333H26.0412V23.0695H25.5774V23.5333ZM18.1404 23.5333H17.6767V23.9971H18.1404V23.5333ZM14.3946 21.8494C14.3946 20.9431 15.1293 20.2084 16.0356 20.2084V19.2809C14.6171 19.2809 13.4671 20.4308 13.4671 21.8494H14.3946ZM14.3946 23.5333V21.8494H13.4671V23.5333H14.3946ZM6.63428 23.9971H13.9308V23.0695H6.63428V23.9971ZM7.09805 26.3397V23.5333H6.17051V26.3397H7.09805ZM25.5774 25.8759H6.63428V26.8035H25.5774V25.8759ZM25.1136 23.5333V26.3397H26.0412V23.5333H25.1136ZM18.1404 23.9971H25.5774V23.0695H18.1404V23.9971ZM17.6767 21.8494V23.5333H18.6042V21.8494H17.6767ZM16.0356 20.2084C16.9419 20.2084 17.6767 20.9431 17.6767 21.8494H18.6042C18.6042 20.4308 17.4542 19.2809 16.0356 19.2809V20.2084Z" fill="#070C11" mask="url(#path-9-inside-3_0_324)"/>
<rect x="9.1114" y="0.893017" width="13.8488" height="1.07975" rx="0.539873" fill="#4878A6" stroke="#070C11" stroke-width="0.463768"/>
<rect x="13.4612" y="0.191357" width="5.14901" height="2.48294" rx="1.24147" fill="#F15152" stroke="#070C11" stroke-width="0.463768"/>
<circle cx="15.8954" cy="11.3256" r="1.73259" fill="#F15152" stroke="#070C11" stroke-width="0.463768"/>
<rect x="6.83052" y="26.0483" width="18.5507" height="2.16425" fill="white" stroke="#070C11" stroke-width="0.463768"/>
</g>
<defs>
<clipPath id="clip0_0_324">
<rect width="32" height="32" fill="white"/>
</clipPath>
</defs>
</svg>
