<svg width="32" height="32" viewBox="0 0 32 32" fill="none" xmlns="http://www.w3.org/2000/svg">
<path d="M24.6896 23.2157H16.5287V20.6932H20.6919C21.7525 20.6932 22.6123 19.8335 22.6123 18.7729V9.11963H24.6896V23.2157Z" fill="#4878A6" stroke="#0E1821" stroke-width="0.480098" stroke-linecap="round" stroke-linejoin="round"/>
<path d="M30.8407 20.679C30.1957 16.907 26.5364 15.8939 24.6895 15.8708V21.3609H30.2359C30.6067 21.3609 30.9032 21.0444 30.8407 20.679Z" fill="#4878A6" stroke="#0E1821" stroke-width="0.480098" stroke-linecap="round" stroke-linejoin="round"/>
<path d="M12.9675 23.8834C12.9675 26.096 11.1739 27.8897 8.96127 27.8897C6.74868 27.8897 4.95502 26.096 4.95502 23.8834C4.95502 21.6709 6.74868 19.8772 8.96127 19.8772C11.1739 19.8772 12.9675 21.6709 12.9675 23.8834ZM6.88808 23.8834C6.88808 25.0284 7.81628 25.9566 8.96127 25.9566C10.1063 25.9566 11.0345 25.0284 11.0345 23.8834C11.0345 22.7385 10.1063 21.8103 8.96127 21.8103C7.81628 21.8103 6.88808 22.7385 6.88808 23.8834Z" fill="#0E1821"/>
<circle cx="8.96111" cy="23.8834" r="1.98565" fill="white" stroke="#0E1821" stroke-width="0.480098"/>
<circle cx="8.96127" cy="23.8834" r="3.7662" stroke="#0E1821" stroke-width="0.480098"/>
<path d="M30.7734 23.8834C30.7734 26.096 28.9798 27.8897 26.7672 27.8897C24.5546 27.8897 22.7609 26.096 22.7609 23.8834C22.7609 21.6709 24.5546 19.8772 26.7672 19.8772C28.9798 19.8772 30.7734 21.6709 30.7734 23.8834ZM24.694 23.8834C24.694 25.0284 25.6222 25.9566 26.7672 25.9566C27.9122 25.9566 28.8404 25.0284 28.8404 23.8834C28.8404 22.7385 27.9122 21.8103 26.7672 21.8103C25.6222 21.8103 24.694 22.7385 24.694 23.8834Z" fill="#0E1821"/>
<circle cx="26.7666" cy="23.8834" r="1.98565" fill="white" stroke="#0E1821" stroke-width="0.480098"/>
<circle cx="26.7672" cy="23.8834" r="3.7662" stroke="#0E1821" stroke-width="0.480098"/>
<line x1="1.04028" y1="27.6496" x2="31.1264" y2="27.6496" stroke="#0E1821" stroke-width="0.480098" stroke-linecap="round"/>
<circle cx="2.28403" cy="16.9098" r="1.24375" fill="#FBB13C" stroke="#0E1821" stroke-width="0.480098"/>
<path d="M2.22748 18.8582C2.22748 16.0299 4.52024 13.7371 7.34852 13.7371H16.5853V23.1985H2.78759C2.47825 23.1985 2.22748 22.9477 2.22748 22.6383V18.8582Z" fill="#2A5275" stroke="#0E1821" stroke-width="0.480098"/>
<path d="M3.7113 20.8404C3.7113 19.2937 4.96516 18.0399 6.51187 18.0399H13.2962C14.0474 18.0399 14.6564 18.6489 14.6564 19.4001V23.1982H3.7113V20.8404Z" fill="#4878A6" stroke="#0E1821" stroke-width="0.480098"/>
<path d="M3.41467 12.6067C3.41467 12.0017 3.90508 11.5113 4.51004 11.5113H12.0032H16.232C16.837 11.5113 17.3274 12.0017 17.3274 12.6067C17.3274 13.2116 16.837 13.702 16.232 13.702H12.0032H4.51004C3.90508 13.702 3.41467 13.2116 3.41467 12.6067Z" fill="#F15152" stroke="#0E1821" stroke-width="0.480098"/>
<path d="M20.1815 6.67132C20.1815 5.32884 21.2698 4.24054 22.6123 4.24054H26.2286C26.8031 4.24054 27.2688 4.70626 27.2688 5.28075V8.0619C27.2688 8.63639 26.8031 9.10211 26.2286 9.10211H22.6123C21.2698 9.10211 20.1815 8.01381 20.1815 6.67132Z" fill="#4878A6" stroke="#0E1821" stroke-width="0.480098"/>
<rect x="17.3621" y="6.0213" width="6.49375" height="1.7456" rx="0.872799" fill="#2A5275" stroke="#0E1821" stroke-width="0.480098"/>
<path d="M28.8833 4.98239L27.287 5.54778L27.2812 7.87738L28.8919 8.14133L28.8833 4.98239Z" fill="#4878A6" stroke="#0E1821" stroke-width="0.480098" stroke-linecap="round" stroke-linejoin="round"/>
<circle cx="29.0589" cy="6.66512" r="0.964468" transform="rotate(9.30666 29.0589 6.66512)" fill="#FBB13C" stroke="#0E1821" stroke-width="0.480098"/>
</svg>
