<svg width="32" height="32" viewBox="0 0 32 32" fill="none" xmlns="http://www.w3.org/2000/svg">
<rect x="2.32049" y="24.4048" width="27.6856" height="2.56052" rx="1.28026" fill="#2A5275" stroke="#0E1821" stroke-width="0.480098"/>
<path d="M4.56079 26.9651H9.84186V29.7657C9.84186 30.2518 9.44779 30.6459 8.96168 30.6459H5.44097C4.95486 30.6459 4.56079 30.2518 4.56079 29.7657V26.9651Z" fill="#0E1821" stroke="#0E1821" stroke-width="0.480098"/>
<path d="M22.4845 26.9651H27.7656V29.7657C27.7656 30.2518 27.3715 30.6459 26.8854 30.6459H23.3647C22.8786 30.6459 22.4845 30.2518 22.4845 29.7657V26.9651Z" fill="#0E1821" stroke="#0E1821" stroke-width="0.480098"/>
<path d="M2.96051 19.3637C2.96051 17.5519 4.42931 16.0831 6.24117 16.0831H26.0852C27.8971 16.0831 29.3659 17.5519 29.3659 19.3637V22.8844C29.3659 23.7241 28.6852 24.4048 27.8456 24.4048H4.48082C3.64118 24.4048 2.96051 23.7241 2.96051 22.8844V19.3637Z" fill="#4878A6" stroke="#0E1821" stroke-width="0.480098"/>
<path d="M22.2325 8.32129H10.0937C8.66425 8.32129 7.40812 9.26912 7.01588 10.6437L5.44092 16.1629H26.8853L25.3103 10.6437C24.9181 9.26912 23.6619 8.32129 22.2325 8.32129Z" fill="#4878A6" stroke="#0E1821" stroke-width="0.480098" stroke-linecap="round" stroke-linejoin="round"/>
<path d="M22.8628 10.1619H9.46319C9.11638 10.1619 8.80905 10.3853 8.70206 10.7152L6.96112 16.0831H25.3649L23.6239 10.7152C23.5169 10.3853 23.2096 10.1619 22.8628 10.1619Z" fill="white" stroke="#0E1821" stroke-width="0.480098" stroke-linecap="round" stroke-linejoin="round"/>
<path d="M6.30054 13.2825H5.60097C3.47977 13.2825 1.76019 11.5629 1.76019 9.4417V6.72115C1.76019 4.59995 3.47977 2.88037 5.60097 2.88037H24.4848" stroke="#0E1821" stroke-width="0.480098"/>
<path d="M25.205 2.16021L25.205 3.60051L24.4849 3.60051C24.3523 3.60051 24.2448 3.49303 24.2448 3.36046L24.2448 2.40026C24.2448 2.26769 24.3523 2.16021 24.4849 2.16021L25.205 2.16021Z" fill="#F15152" stroke="#0E1821" stroke-width="0.480098"/>
<path d="M27.4457 1.35992L27.4457 4.40054L25.4453 4.40054C25.3128 4.40054 25.2053 4.29307 25.2053 4.16049L25.2053 1.59997C25.2053 1.4674 25.3128 1.35992 25.4453 1.35992L27.4457 1.35992Z" fill="#F15152" stroke="#0E1821" stroke-width="0.480098"/>
<line x1="27.7655" y1="2.00019" x2="28.7257" y2="2.00019" stroke="#0E1821" stroke-width="0.480098" stroke-linecap="round"/>
<line x1="27.7655" y1="3.76044" x2="28.7257" y2="3.76044" stroke="#0E1821" stroke-width="0.480098" stroke-linecap="round"/>
<circle cx="7.12113" cy="20.7239" r="2.24046" fill="#FBB13C" stroke="#0E1821" stroke-width="0.480098"/>
<circle cx="25.2051" cy="20.7239" r="2.24046" fill="#FBB13C" stroke="#0E1821" stroke-width="0.480098"/>
<path d="M15.2902 17.7292C15.3009 17.6929 15.3232 17.661 15.3537 17.6384C15.3841 17.6157 15.4212 17.6035 15.4592 17.6035H16.8674C16.8953 17.6035 16.9227 17.6101 16.9476 17.6228C16.9724 17.6354 16.9938 17.6537 17.0101 17.6762C17.0264 17.6987 17.0371 17.7247 17.0413 17.7521C17.0455 17.7795 17.0431 17.8076 17.0343 17.8338L16.4076 19.7038H17.7475C17.7805 19.7038 17.8128 19.713 17.8408 19.7303C17.8687 19.7477 17.8913 19.7725 17.9057 19.8019C17.9202 19.8313 17.9261 19.8642 17.9227 19.8968C17.9193 19.9294 17.9068 19.9604 17.8866 19.9863L15.4222 23.1368C15.397 23.1692 15.3611 23.1918 15.3208 23.2006C15.2805 23.2094 15.2384 23.2038 15.2018 23.1849C15.1652 23.166 15.1365 23.1349 15.1206 23.097C15.1047 23.0592 15.1027 23.017 15.1149 22.9778L15.7489 20.929H14.5791C14.5517 20.929 14.5247 20.9227 14.5002 20.9105C14.4758 20.8983 14.4545 20.8807 14.4381 20.8589C14.4217 20.8371 14.4106 20.8118 14.4057 20.785C14.4009 20.7583 14.4024 20.7307 14.4101 20.7046L15.2902 17.7292ZM15.5909 17.9536L14.8143 20.5789H15.9873C16.0148 20.5789 16.042 20.5854 16.0666 20.5977C16.0912 20.61 16.1125 20.6279 16.1289 20.65C16.1453 20.672 16.1562 20.6975 16.1608 20.7245C16.1655 20.7515 16.1637 20.7792 16.1556 20.8054L15.7338 22.1682L17.3877 20.0539H16.1633C16.1354 20.0538 16.108 20.0472 16.0831 20.0346C16.0583 20.022 16.0369 20.0036 16.0206 19.9811C16.0043 19.9587 15.9936 19.9326 15.9894 19.9052C15.9852 19.8778 15.9876 19.8498 15.9964 19.8235L16.6231 17.9536H15.5909Z" fill="white"/>
</svg>
