<svg width="32" height="32" viewBox="0 0 32 32" fill="none" xmlns="http://www.w3.org/2000/svg">
<path d="M0.959956 18.4033H8.80155H10.0018V23.4443H9.20163C8.05265 23.4443 7.12121 22.5129 7.12121 21.3639C7.12121 20.7894 6.65549 20.3237 6.081 20.3237H1.76012C1.05305 20.3237 0.479858 19.7505 0.479858 19.0435V18.8834C0.479858 18.6183 0.694806 18.4033 0.959956 18.4033Z" fill="#2A5275" stroke="#0E1821" stroke-width="0.480098" stroke-linecap="round" stroke-linejoin="round"/>
<path d="M31.0463 18.4033H23.2047H22.0045V23.4443H22.8047C23.9536 23.4443 24.8851 22.5129 24.8851 21.3639C24.8851 20.7894 25.3508 20.3237 25.9253 20.3237H30.2462C30.9532 20.3237 31.5264 19.7505 31.5264 19.0435V18.8834C31.5264 18.6183 31.3115 18.4033 31.0463 18.4033Z" fill="#2A5275" stroke="#0E1821" stroke-width="0.480098" stroke-linecap="round" stroke-linejoin="round"/>
<rect x="13.6031" y="16.7232" width="4.80098" height="13.6028" rx="2.40049" fill="#0E1821" stroke="#0E1821" stroke-width="0.480098"/>
<path d="M10.9625 25.605C9.73526 23.0581 8.72205 19.2831 8.72205 15.5088C8.72205 7.65045 11.9821 1.28003 16.0035 1.28003C20.025 1.28003 23.285 7.65045 23.285 15.5088C23.285 19.3747 22.325 23.0406 21.0446 25.605" stroke="#0E1821" stroke-width="0.480098"/>
<path d="M8.64197 15.5228C8.64197 10.7233 9.91937 6.50925 11.8426 3.98886V25.1248C11.8426 25.4341 11.5918 25.6849 11.2825 25.6849C11.0753 25.6849 10.8891 25.575 10.7972 25.4C9.46864 22.87 8.64197 19.3829 8.64197 15.5228Z" fill="#4878A6" stroke="#0E1821" stroke-width="0.480098"/>
<path d="M20.1645 25.1248V3.98886C22.0877 6.50925 23.3651 10.7233 23.3651 15.5228C23.3651 19.3829 22.5385 22.87 21.2099 25.4C21.118 25.575 20.9318 25.6849 20.7246 25.6849C20.4153 25.6849 20.1645 25.4341 20.1645 25.1248Z" fill="#4878A6" stroke="#0E1821" stroke-width="0.480098"/>
<path d="M14.8135 6.26417C14.8291 6.21129 14.8614 6.16487 14.9058 6.13186C14.9501 6.09885 15.0039 6.08102 15.0593 6.08105H17.1075C17.1481 6.08109 17.188 6.09071 17.2241 6.10913C17.2602 6.12755 17.2914 6.15425 17.3151 6.18702C17.3388 6.21979 17.3543 6.2577 17.3605 6.29763C17.3666 6.33756 17.3631 6.37836 17.3503 6.41668L16.4388 9.14149H18.3877C18.4357 9.14146 18.4827 9.15484 18.5233 9.18011C18.564 9.20537 18.5968 9.24151 18.6179 9.28441C18.6389 9.32731 18.6475 9.37524 18.6426 9.42274C18.6376 9.47025 18.6194 9.51543 18.59 9.55312L15.0055 14.1438C14.9688 14.191 14.9166 14.2239 14.858 14.2368C14.7994 14.2496 14.7381 14.2415 14.6849 14.2139C14.6317 14.1864 14.5898 14.1411 14.5667 14.0859C14.5436 14.0308 14.5407 13.9693 14.5584 13.9122L15.4807 10.9268H13.7791C13.7393 10.9268 13.7 10.9176 13.6644 10.8998C13.6288 10.8821 13.5978 10.8563 13.574 10.8246C13.5501 10.7928 13.534 10.756 13.527 10.717C13.5199 10.678 13.5221 10.6378 13.5333 10.5998L14.8135 6.26417ZM15.2508 6.59113L14.1211 10.4167H15.8274C15.8674 10.4167 15.9069 10.426 15.9427 10.444C15.9785 10.462 16.0095 10.4881 16.0333 10.5202C16.0571 10.5523 16.0731 10.5895 16.0798 10.6288C16.0865 10.6682 16.0839 10.7085 16.0721 10.7467L15.4587 12.7324L17.8644 9.65157H16.0834C16.0428 9.65154 16.0029 9.64191 15.9668 9.62349C15.9307 9.60507 15.8995 9.57837 15.8758 9.5456C15.8521 9.51283 15.8366 9.47492 15.8305 9.43499C15.8244 9.39506 15.8279 9.35426 15.8407 9.31594L16.7522 6.59113H15.2508Z" fill="#F15152"/>
</svg>
