<svg width="32" height="32" viewBox="0 0 32 32" fill="none" xmlns="http://www.w3.org/2000/svg">
<path fill-rule="evenodd" clip-rule="evenodd" d="M7.47623 24.6292L14.673 17.8072V14.4337H15.7975V17.4324H22.9943L22.6945 14.2088C22.6195 12.9344 22.9643 11.9898 25.8431 11.51L26.068 12.6345C25.4432 12.6595 24.1638 12.9944 24.0439 13.5341C23.9239 14.0739 24.7436 21.1057 25.1684 24.5542L24.0439 25.004L23.2192 19.0067L16.922 24.8541L16.4722 23.7296L21.9448 18.5569H15.7975V23.8795V26.1285H6.4267L7.47623 24.6292ZM14.673 19.4565V23.8795V25.1539H8.4508L14.673 19.4565Z" fill="#4878A6" stroke="#0E1821" stroke-width="0.480098" stroke-linecap="round" stroke-linejoin="round"/>
<circle cx="7.10126" cy="25.9038" r="5.38245" stroke="#0E1821" stroke-width="0.480098"/>
<path d="M12.4239 25.9039C12.4239 28.8435 10.0409 31.2266 7.10126 31.2266C4.16165 31.2266 1.77863 28.8435 1.77863 25.9039C1.77863 22.9643 4.16165 20.5813 7.10126 20.5813C10.0409 20.5813 12.4239 22.9643 12.4239 25.9039ZM3.20911 25.9039C3.20911 28.0535 4.95168 29.7961 7.10126 29.7961C9.25084 29.7961 10.9934 28.0535 10.9934 25.9039C10.9934 23.7544 9.25084 22.0118 7.10126 22.0118C4.95168 22.0118 3.20911 23.7544 3.20911 25.9039Z" fill="#0E1821"/>
<circle cx="7.10126" cy="25.9038" r="5.38245" stroke="#0E1821" stroke-width="0.480098"/>
<circle cx="7.10135" cy="25.9037" r="3.73319" stroke="#0E1821" stroke-width="0.480098"/>
<circle cx="7.10128" cy="25.9039" r="1.33425" fill="#F15152" stroke="#0E1821" stroke-width="0.480098"/>
<path d="M30.2664 25.9039C30.2664 28.8435 27.8833 31.2266 24.9437 31.2266C22.0041 31.2266 19.6211 28.8435 19.6211 25.9039C19.6211 22.9643 22.0041 20.5813 24.9437 20.5813C27.8833 20.5813 30.2664 22.9643 30.2664 25.9039ZM21.0516 25.9039C21.0516 28.0535 22.7942 29.7961 24.9437 29.7961C27.0933 29.7961 28.8359 28.0535 28.8359 25.9039C28.8359 23.7544 27.0933 22.0118 24.9437 22.0118C22.7942 22.0118 21.0516 23.7544 21.0516 25.9039Z" fill="#0E1821"/>
<circle cx="24.9435" cy="25.9038" r="5.38245" stroke="#0E1821" stroke-width="0.480098"/>
<circle cx="24.9438" cy="25.9037" r="3.73319" stroke="#0E1821" stroke-width="0.480098"/>
<circle cx="24.9437" cy="25.9039" r="1.33425" fill="#F15152" stroke="#0E1821" stroke-width="0.480098"/>
<circle cx="15.2731" cy="25.3791" r="1.85902" fill="#2A5275" stroke="#0E1821" stroke-width="0.480098"/>
<line x1="15.2828" y1="25.3893" x2="15.2828" y2="28.6676" stroke="#0E1821" stroke-width="0.320065" stroke-linecap="round"/>
<line x1="15.9325" y1="28.6177" x2="14.6134" y2="28.6177" stroke="#0E1821" stroke-width="0.480098" stroke-linecap="round"/>
<circle cx="26.9677" cy="11.7349" r="1.25928" fill="#F15152" stroke="#0E1821" stroke-width="0.480098"/>
<path d="M5.67725 9.78589V14.9629C5.67725 15.5815 6.17879 16.0831 6.79747 16.0831H14.8232" stroke="#0E1821" stroke-width="0.480098"/>
<circle cx="19.771" cy="6.03749" r="5.15755" fill="white" stroke="#0E1821" stroke-width="0.480098"/>
<path d="M18.581 2.46062C18.5956 2.41108 18.6259 2.36759 18.6674 2.33666C18.7089 2.30573 18.7594 2.28903 18.8112 2.28906H20.7303C20.7682 2.28909 20.8057 2.29811 20.8395 2.31537C20.8733 2.33263 20.9025 2.35764 20.9247 2.38834C20.9469 2.41905 20.9615 2.45456 20.9672 2.49197C20.9729 2.52938 20.9697 2.56761 20.9577 2.60351L20.1037 5.15637H21.9296C21.9746 5.15634 22.0186 5.16887 22.0567 5.19254C22.0948 5.21622 22.1255 5.25007 22.1453 5.29026C22.165 5.33045 22.173 5.37536 22.1684 5.41987C22.1638 5.46438 22.1467 5.5067 22.1192 5.54202L18.7609 9.84298C18.7265 9.88725 18.6775 9.91809 18.6226 9.9301C18.5677 9.94211 18.5104 9.93454 18.4605 9.90871C18.4106 9.88288 18.3715 9.84043 18.3498 9.78876C18.3282 9.7371 18.3254 9.6795 18.342 9.62602L19.2061 6.82896H17.6118C17.5746 6.82898 17.5378 6.82034 17.5044 6.80373C17.4711 6.78711 17.442 6.76298 17.4197 6.73324C17.3973 6.70351 17.3823 6.66899 17.3756 6.63243C17.369 6.59587 17.371 6.55828 17.3816 6.52264L18.581 2.46062ZM18.9907 2.76695L17.9323 6.35108H19.5309C19.5684 6.35107 19.6054 6.35984 19.6389 6.37668C19.6725 6.39352 19.7015 6.41796 19.7239 6.44804C19.7462 6.47811 19.7611 6.51298 19.7674 6.54985C19.7737 6.58671 19.7712 6.62453 19.7602 6.66027L19.1854 8.52067L21.4393 5.63425H19.7707C19.7328 5.63422 19.6953 5.62521 19.6615 5.60795C19.6277 5.59069 19.5985 5.56568 19.5763 5.53497C19.5541 5.50427 19.5395 5.46875 19.5338 5.43134C19.5281 5.39393 19.5313 5.35571 19.5433 5.3198L20.3973 2.76695H18.9907Z" fill="#F15152"/>
<path d="M5.01733 8.82647H6.33643V9.45573C6.33643 9.5883 6.22896 9.69578 6.09639 9.69578H5.25738C5.1248 9.69578 5.01733 9.5883 5.01733 9.45573V8.82647Z" fill="#F15152" stroke="#0E1821" stroke-width="0.480098"/>
<path d="M4.26788 6.72735H7.08632V8.55607C7.08632 8.68865 6.97884 8.79612 6.84627 8.79612H4.50793C4.37535 8.79612 4.26788 8.68865 4.26788 8.55607V6.72735Z" fill="#F15152" stroke="#0E1821" stroke-width="0.480098"/>
<line x1="4.83728" y1="6.39716" x2="4.83728" y2="5.52786" stroke="#0E1821" stroke-width="0.480098" stroke-linecap="round"/>
<line x1="6.4867" y1="6.39716" x2="6.4867" y2="5.52786" stroke="#0E1821" stroke-width="0.480098" stroke-linecap="round"/>
<path d="M18.1965 14.3589H12.6489C12.0492 14.2839 11.917 14.0944 11.7493 13.7592C11.5994 13.4593 11.6744 12.7846 11.8243 12.4847C12.0048 12.1237 12.424 11.8767 12.7239 11.81C13.3986 11.6601 14.1483 11.81 14.748 12.1099C15.2222 12.347 15.5984 12.9784 16.0224 13.0844C16.3223 13.1594 18.1215 13.1594 18.4214 13.3093C18.7212 13.4593 18.7962 14.159 18.1965 14.3589Z" fill="white" stroke="#0E1821" stroke-width="0.480098" stroke-linecap="round" stroke-linejoin="round"/>
</svg>
