<svg width="32" height="32" viewBox="0 0 32 32" fill="none" xmlns="http://www.w3.org/2000/svg">
<path d="M5.68146 10.9619C5.68146 9.8571 6.57707 8.96148 7.68186 8.96148H9.44222C10.547 8.96148 11.4426 9.8571 11.4426 10.9619V12.9623H5.68146V10.9619Z" fill="#2A5275" stroke="#0E1821" stroke-width="0.480098"/>
<path d="M14.4833 12.4023C14.4833 11.8278 14.949 11.3621 15.5235 11.3621H16.4837C17.0582 11.3621 17.5239 11.8278 17.5239 12.4023V13.4425H14.4833V12.4023Z" fill="#4878A6" stroke="#0E1821" stroke-width="0.480098"/>
<path d="M20.5641 10.9619C20.5641 9.8571 21.4598 8.96148 22.5646 8.96148H24.3249C25.4297 8.96148 26.3253 9.8571 26.3253 10.9619V12.9623H20.5641V10.9619Z" fill="#2A5275" stroke="#0E1821" stroke-width="0.480098"/>
<path d="M2.24048 26.3765V18.5177C2.24048 14.3731 5.43982 10.2044 9.44194 11.282C10.3587 11.5289 11.2432 12.0727 11.8858 12.5425C12.555 13.0317 13.3459 13.3625 14.1748 13.3625H17.8317C18.6607 13.3625 19.4515 13.0317 20.1207 12.5425C20.7633 12.0727 21.6478 11.5289 22.5646 11.282C26.5667 10.2044 29.7661 14.3731 29.7661 18.5177V26.3765C29.7661 28.5135 28.0337 30.2459 25.8967 30.2459C24.0946 30.2459 22.442 29.2441 21.6085 27.6464L19.764 24.1113C19.3706 23.3572 18.5906 22.8844 17.74 22.8844H14.2665C13.416 22.8844 12.6359 23.3572 12.2425 24.1113L10.3981 27.6464C9.56453 29.2441 7.91192 30.2459 6.10989 30.2459C3.97287 30.2459 2.24048 28.5135 2.24048 26.3765Z" fill="white" stroke="#0E1821" stroke-width="0.480098" stroke-linecap="round" stroke-linejoin="round"/>
<path d="M12.803 17.5235C12.803 19.9099 10.8685 21.8444 8.48213 21.8444C6.09578 21.8444 4.16125 19.9099 4.16125 17.5235C4.16125 15.1372 6.09578 13.2026 8.48213 13.2026C10.8685 13.2026 12.803 15.1372 12.803 17.5235ZM6.29282 17.5235C6.29282 18.7326 7.27301 19.7128 8.48213 19.7128C9.69126 19.7128 10.6715 18.7326 10.6715 17.5235C10.6715 16.3144 9.69126 15.3342 8.48213 15.3342C7.27301 15.3342 6.29282 16.3144 6.29282 17.5235Z" fill="#2A5275"/>
<circle cx="8.48197" cy="17.5233" r="2.16044" stroke="#0E1821" stroke-width="0.480098"/>
<circle cx="8.48207" cy="17.5233" r="4.40089" stroke="#0E1821" stroke-width="0.480098"/>
<circle cx="20.3245" cy="17.5232" r="1.36028" fill="#F15152" stroke="#0E1821" stroke-width="0.480098"/>
<circle cx="23.445" cy="20.6438" r="1.36028" transform="rotate(-90 23.445 20.6438)" fill="#F15152" stroke="#0E1821" stroke-width="0.480098"/>
<circle cx="26.5655" cy="17.5232" r="1.36028" fill="#F15152" stroke="#0E1821" stroke-width="0.480098"/>
<circle cx="23.445" cy="14.4026" r="1.36028" transform="rotate(-90 23.445 14.4026)" fill="#F15152" stroke="#0E1821" stroke-width="0.480098"/>
<path d="M16.0034 11.3622V9.52183C16.0034 8.638 16.7199 7.92151 17.6037 7.92151H20.6044C21.4661 7.92151 22.1647 7.22293 22.1647 6.36119V6.36119C22.1647 5.49945 21.4661 4.80087 20.6044 4.80087H17.6037C16.7199 4.80087 16.0034 4.08438 16.0034 3.20055V1.76025" stroke="#0E1821" stroke-width="0.480098" stroke-linecap="round" stroke-linejoin="round"/>
<line x1="14.9633" y1="16.0829" x2="17.0437" y2="16.0829" stroke="#0E1821" stroke-width="0.480098" stroke-linecap="round"/>
<line x1="14.003" y1="20.884" x2="15.1233" y2="20.884" stroke="#0E1821" stroke-width="0.480098" stroke-linecap="round"/>
<line x1="16.8838" y1="20.884" x2="18.0041" y2="20.884" stroke="#0E1821" stroke-width="0.480098" stroke-linecap="round"/>
</svg>
