<svg width="32" height="32" viewBox="0 0 32 32" fill="none" xmlns="http://www.w3.org/2000/svg">
<rect x="5.84076" y="4.40069" width="20.3241" height="23.0447" rx="3.28067" fill="#4878A6" stroke="#0E1821" stroke-width="0.480098"/>
<rect x="7.76153" y="6.00104" width="16.4834" height="19.684" rx="1.68034" fill="white" stroke="#0E1821" stroke-width="0.480098"/>
<path d="M15.1298 8.12713C15.1405 8.09084 15.1628 8.05898 15.1933 8.03633C15.2237 8.01368 15.2608 8.00144 15.2988 8.00146H16.707C16.7349 8.00149 16.7623 8.00809 16.7872 8.02073C16.812 8.03338 16.8334 8.0517 16.8497 8.07419C16.866 8.09668 16.8767 8.1227 16.8809 8.1501C16.8851 8.1775 16.8827 8.2055 16.8739 8.2318L16.2472 10.1018H17.5871C17.6201 10.1017 17.6524 10.1109 17.6804 10.1283C17.7083 10.1456 17.7309 10.1704 17.7453 10.1998C17.7598 10.2293 17.7657 10.2622 17.7623 10.2948C17.7589 10.3274 17.7464 10.3584 17.7262 10.3843L15.2618 13.5347C15.2366 13.5671 15.2007 13.5897 15.1604 13.5985C15.1201 13.6073 15.078 13.6018 15.0414 13.5829C15.0048 13.5639 14.9761 13.5328 14.9602 13.495C14.9443 13.4572 14.9423 13.415 14.9545 13.3758L15.5885 11.3269H14.4187C14.3913 11.327 14.3643 11.3206 14.3398 11.3085C14.3154 11.2963 14.2941 11.2786 14.2777 11.2568C14.2613 11.235 14.2502 11.2098 14.2453 11.183C14.2405 11.1562 14.242 11.1287 14.2497 11.1026L15.1298 8.12713ZM15.4305 8.35152L14.6539 10.9769H15.8269C15.8544 10.9769 15.8816 10.9833 15.9062 10.9956C15.9308 11.008 15.9521 11.0259 15.9685 11.0479C15.9849 11.0699 15.9958 11.0955 16.0004 11.1225C16.0051 11.1495 16.0033 11.1772 15.9952 11.2034L15.5734 12.5661L17.2273 10.4518H16.0029C15.975 10.4518 15.9476 10.4452 15.9227 10.4325C15.8979 10.4199 15.8765 10.4016 15.8602 10.3791C15.8439 10.3566 15.8332 10.3306 15.829 10.3032C15.8248 10.2758 15.8272 10.2478 15.836 10.2215L16.4627 8.35152H15.4305Z" fill="#F15152"/>
<circle cx="11.8421" cy="17.6034" r="1.20024" fill="#FBB13C" stroke="#0E1821" stroke-width="0.480098"/>
<circle cx="11.8421" cy="21.7643" r="1.20024" fill="#FBB13C" stroke="#0E1821" stroke-width="0.480098"/>
<circle cx="16.003" cy="17.6034" r="1.20024" fill="#FBB13C" stroke="#0E1821" stroke-width="0.480098"/>
<circle cx="16.003" cy="21.7643" r="1.20024" fill="#FBB13C" stroke="#0E1821" stroke-width="0.480098"/>
<circle cx="20.1639" cy="17.6034" r="1.20024" fill="#FBB13C" stroke="#0E1821" stroke-width="0.480098"/>
<circle cx="20.1639" cy="21.7643" r="1.20024" fill="#FBB13C" stroke="#0E1821" stroke-width="0.480098"/>
<path d="M10.4026 1.52111C10.5184 0.87236 11.0826 0.399961 11.7417 0.399961H20.1042C20.7632 0.399961 21.3274 0.87236 21.4433 1.52111L21.9575 4.40077H9.88834L10.4026 1.52111Z" fill="#2A5275" stroke="#0E1821" stroke-width="0.480098"/>
<path d="M10.4026 30.3251C10.5184 30.9738 11.0826 31.4462 11.7417 31.4462H20.1042C20.7632 31.4462 21.3274 30.9738 21.4433 30.3251L21.9575 27.4454H9.88834L10.4026 30.3251Z" fill="#2A5275" stroke="#0E1821" stroke-width="0.480098"/>
</svg>
