<svg width="48" height="48" viewBox="0 0 48 48" fill="none" xmlns="http://www.w3.org/2000/svg">
<path d="M32.16 17.0002C31.1 15.9374 29.6948 15.2887 28.1983 15.1713C26.7019 15.054 25.2128 15.4756 24 16.3602C22.7277 15.4138 21.144 14.9847 19.5679 15.1592C17.9918 15.3337 16.5404 16.0989 15.506 17.3008C14.4715 18.5026 13.9308 20.0517 13.9928 21.6362C14.0548 23.2207 14.7148 24.7228 15.84 25.8402L22.05 32.0602C22.57 32.5719 23.2704 32.8588 24 32.8588C24.7296 32.8588 25.43 32.5719 25.95 32.0602L32.16 25.8402C33.3276 24.6654 33.9829 23.0764 33.9829 21.4202C33.9829 19.7639 33.3276 18.1749 32.16 17.0002ZM30.75 24.4602L24.54 30.6702C24.4693 30.7415 24.3852 30.7982 24.2925 30.8368C24.1999 30.8755 24.1004 30.8954 24 30.8954C23.8996 30.8954 23.8001 30.8755 23.7075 30.8368C23.6148 30.7982 23.5307 30.7415 23.46 30.6702L17.25 24.4302C16.4658 23.6285 16.0266 22.5516 16.0266 21.4302C16.0266 20.3087 16.4658 19.2318 17.25 18.4302C18.0492 17.6412 19.127 17.1987 20.25 17.1987C21.373 17.1987 22.4508 17.6412 23.25 18.4302C23.343 18.5239 23.4536 18.5983 23.5754 18.6491C23.6973 18.6998 23.828 18.726 23.96 18.726C24.092 18.726 24.2227 18.6998 24.3446 18.6491C24.4664 18.5983 24.577 18.5239 24.67 18.4302C25.4692 17.6412 26.547 17.1987 27.67 17.1987C28.793 17.1987 29.8708 17.6412 30.67 18.4302C31.465 19.2213 31.9186 20.2924 31.9335 21.4139C31.9485 22.5353 31.5236 23.6181 30.75 24.4302V24.4602Z" fill="#838688"/>
</svg>
