<svg width="184" height="60" viewBox="0 0 184 60" fill="none" xmlns="http://www.w3.org/2000/svg">
<path fill-rule="evenodd" clip-rule="evenodd" d="M165.443 31.2234H171.59L177.345 42.7574H173.156L172.06 40.8156H164.934L163.838 42.7574H159.649L165.443 31.2234ZM135.416 33.9419V34.7962V39.9224V42.7574H139.018V39.9224V32.4273V31.2234H133.146L126.999 39.7671C126.96 39.8836 126.921 39.9613 126.843 40.0778V39.1846V35.0681V31.2234H123.241V35.0681V41.903V42.7574H129.113L135.26 34.2137C135.338 34.136 135.377 34.0195 135.416 33.9419ZM168.81 33.8253H168.262L166.305 37.8253H170.728L168.81 33.8253ZM143.05 31.2234H146.652V35.2622H148.531L152.603 31.2234H157.535L151.702 36.738L158.279 42.7962H153.072L148.531 38.2914H146.652V42.7962H143.05V31.2234ZM104.997 31.2234H108.599V35.2622H116.351V31.2234H119.952V42.7574H116.351V38.2525H108.599V42.7574H104.997V31.2234ZM86.8715 31.1846L92.1957 36.8545L86.8715 42.7574H91.6868L95.2102 38.8739L98.7336 42.7574H103.549L98.2247 36.8545L103.549 31.1846H98.577L95.2102 34.9127L91.8434 31.1846H86.8715ZM72.3864 42.7574V31.1846H84.9532V33.9807H75.9881V35.6118H84.5617V38.4079H75.9881V40.0001H84.9532V42.7962H72.3864V42.7574ZM56.3745 34.1749V31.1846H70.2332V34.1749H65.1047V42.7574H61.503V34.1749H56.3745Z" fill="#2A5275"/>
<path fill-rule="evenodd" clip-rule="evenodd" d="M156.674 14.0584V9.55352H177.384V14.0195H169.711V26.8351H164.347V14.0195H156.674V14.0584ZM78.2587 9.63119V26.9127H83.6221V14.7962L90.6689 26.9127H95.0536L101.631 14.7962V26.9127H106.328L108.403 19.4564L106.603 19.4176L108.677 9.63119H97.8723L93.2919 19.3011H92.4698L87.8893 9.63119H78.2587ZM66.5923 22.9904C69.1762 22.9904 70.6638 22.9516 71.0553 22.8739C71.4468 22.7962 71.6817 22.4856 71.6817 21.9419C71.6817 21.2817 71.4076 20.8545 70.8204 20.6991C70.2332 20.5438 68.8238 20.4273 66.5923 20.4273C62.1294 20.4273 59.3106 20.1166 58.1362 19.4564C56.9617 18.7962 56.3745 17.204 56.3745 14.6797C56.3745 12.3108 57.1183 10.8351 58.6451 10.1749C59.8196 9.67002 62.4034 9.43701 66.4357 9.43701C70.0374 9.43701 72.3081 9.51468 73.2476 9.70886C75.0485 10.0584 76.1447 11.3399 76.497 13.5924H66.5532H66.4357C64.0085 13.5924 62.6383 13.6312 62.2468 13.7089C61.8553 13.7865 61.6987 14.136 61.6987 14.6797C61.6987 15.2623 62.0119 15.6506 62.6383 15.8448C63.2647 16.039 64.5566 16.1166 66.5532 16.1166C70.977 16.1166 73.7957 16.4661 75.0876 17.1652C76.3796 17.8642 77.0059 19.4564 77.0059 21.9419C77.0059 24.2331 76.3013 25.7089 74.8527 26.3691C73.6 26.9127 70.8596 27.1846 66.514 27.1846C63.1864 27.1846 61.0332 27.1069 60.0545 26.9516C58.5276 26.7186 57.4706 26.2137 56.9225 25.3593C56.5702 24.8157 56.3353 24.039 56.1787 22.9904H66.3966H66.5923ZM115.568 9.63119H124.963L133.576 26.8739H127.312L125.668 23.9613H115.059L113.414 26.8739H107.151L107.19 26.7962L114.315 16.971L111.066 16.7768L115.568 9.63119ZM120.735 13.5147H119.913L117.016 19.4953H123.632L120.735 13.5147ZM134.281 9.55352H149.862C151.78 9.55352 153.151 9.90303 153.934 10.6021C154.795 11.3399 155.226 12.6991 155.226 14.6021C155.226 16.0778 155.03 17.204 154.677 17.903C154.325 18.6021 153.699 19.1458 152.798 19.4953C153.777 19.9225 154.403 20.3496 154.717 20.738C155.03 21.1652 155.186 21.903 155.186 22.9904V26.8739H149.823V23.7671C149.823 23.3011 149.705 22.9516 149.471 22.6409C149.157 22.2525 148.688 22.0195 148.1 22.0195H139.644V26.8351H134.281V9.55352ZM139.605 14.0584V17.5924H148.218C148.805 17.5924 149.236 17.4758 149.471 17.204C149.705 16.971 149.862 16.505 149.862 15.8448C149.862 15.1846 149.745 14.7186 149.471 14.4467C149.197 14.1749 148.805 14.0584 148.218 14.0584H139.605Z" fill="#4878A6"/>
<path fill-rule="evenodd" clip-rule="evenodd" d="M10.1396 13.3591L16.9515 9.47564L26.1906 4.19409L35.4298 9.47564L44.6689 14.7572V20.8931L39.3055 17.8252L26.1906 10.2912L15.503 16.4271L10.1396 13.3591ZM7.71234 17.5145V23.8057L26.5038 34.563L31.7498 31.2621L7.71234 17.5145Z" fill="#4878A6"/>
<path fill-rule="evenodd" clip-rule="evenodd" d="M42.2417 37.2817L35.4298 41.1652L26.1906 46.4467L16.9515 41.1652L7.71234 35.8836V29.7477L13.0757 32.8157L26.1906 40.3108L36.8783 34.1749L42.2417 37.2817ZM30.6928 18.7962L26.3081 16.272L21.1404 19.2234L24.4289 21.1263L43.2204 31.8836L44.7081 32.738V26.7962L43.2204 25.9419L30.6928 18.7962Z" fill="#2A5275"/>
<path fill-rule="evenodd" clip-rule="evenodd" d="M12.6842 51.0292L12.3319 51.9224C11.823 51.6506 11.2749 51.4953 10.6876 51.4953C10.1004 51.4953 9.63061 51.6506 9.31742 51.9224C8.96508 52.1943 8.80849 52.5826 8.80849 53.0487C8.80849 53.5535 9.00423 53.9419 9.35657 54.2525C9.74806 54.5632 10.2178 54.7186 10.8442 54.7186C11.5489 54.7186 12.1361 54.5244 12.6842 54.1749V55.2234C12.1361 55.4953 11.4706 55.6506 10.8051 55.6506C9.90466 55.6506 9.16083 55.4176 8.61274 54.9516C8.06466 54.4855 7.75146 53.8642 7.75146 53.0875C7.75146 52.3496 8.02551 51.7671 8.57359 51.3011C9.12168 50.8351 9.82636 50.6021 10.7268 50.6021C11.3532 50.6021 12.0187 50.7574 12.6842 51.0292ZM14.0544 51.4953H17.6953V52.3496H15.0332V53.0487H17.4996L17.1472 53.903H15.0332V54.6409H17.891V55.4952H14.0153V51.4953H14.0544ZM18.7132 51.4953H22.9413V52.3885H21.3361V55.4952H20.3183V52.3885H18.7132V51.4953ZM23.9591 51.4953H24.977V54.6409H26.543C26.7387 54.6409 26.8953 54.602 27.0127 54.5244C27.1302 54.4467 27.1693 54.3302 27.1693 54.1749C27.1693 54.0195 27.1302 53.903 27.0127 53.8254C26.8953 53.7477 26.7387 53.7088 26.543 53.7088H25.251L25.6034 52.8545H26.543C27.0519 52.8545 27.4434 52.971 27.7174 53.204C27.9915 53.437 28.1481 53.7477 28.1481 54.1749C28.1481 54.602 27.9915 54.9127 27.7174 55.1457C27.4434 55.3787 27.0519 55.4952 26.543 55.4952H23.9591V51.4953ZM32.063 51.4953H33.2374L34.7642 53.8254L36.2519 51.4953H37.4264V55.5341H36.4085V52.971L34.9991 55.1069H34.4119L33.0025 53.0098V55.5729H32.0238V51.4953H32.063ZM39.5013 55.5341H38.4442L40.48 51.5341H41.6544L43.6902 55.5341H42.594L42.2025 54.7962H39.8536L39.5013 55.5341ZM41.0281 52.3496L40.2059 53.9807H41.8502L41.0281 52.3496ZM44.7081 51.4953H47.9183V52.3496H45.7259V55.4952H44.7081V51.4953ZM49.0144 55.5341H47.9574L49.9932 51.5341H51.1676L53.2034 55.5341H52.1072L51.7157 54.7962H49.3668L49.0144 55.5341ZM50.5413 52.3496L49.7191 53.9807H51.3634L50.5413 52.3496ZM54.0255 51.7671C54.7302 51.4953 55.4349 51.3787 56.0613 51.3787C56.6876 51.3787 57.1574 51.4953 57.4706 51.6894C57.823 51.8836 57.9796 52.1943 57.9796 52.5438C57.9796 52.9321 57.7838 53.2428 57.4315 53.3982V53.437C57.8621 53.6312 58.097 53.9419 58.097 54.4079C58.097 54.7962 57.9013 55.1069 57.5489 55.3399C57.1966 55.5729 56.6485 55.6506 55.983 55.6506C55.3957 55.6506 54.8085 55.5341 54.1821 55.3399V54.3302C54.417 54.4467 54.691 54.5632 55.0434 54.6409C55.3566 54.7186 55.7089 54.7574 56.0221 54.7574C56.3353 54.7574 56.5702 54.7186 56.7659 54.6409C56.9617 54.5632 57.04 54.4467 57.04 54.2914C57.04 54.0195 56.7268 53.903 56.1004 53.903H54.5736L54.9259 53.0487H56.1004C56.6876 53.0487 57.0008 52.9321 57.0008 52.6603C57.0008 52.3885 56.6876 52.2331 56.0613 52.2331C55.474 52.2331 54.9259 52.3496 54.3778 52.5826L54.0255 51.7671ZM59.3889 51.4953H60.4068V54.1749L62.7949 51.4953H63.8127V55.5341H62.7949V52.8545L60.4068 55.5341H59.3889V51.4953ZM65.457 51.4953H66.4749V53.0098H68.863V51.4953H69.8808V55.5341H68.863V53.903H66.4749V55.5341H65.457V51.4953ZM73.8349 51.4176C74.6179 51.4176 75.2834 51.6118 75.7532 52.0001C76.223 52.3885 76.497 52.8933 76.497 53.5147C76.497 54.136 76.2621 54.6797 75.7532 55.0681C75.2834 55.4564 74.6179 55.6506 73.8349 55.6506C73.0519 55.6506 72.3864 55.4564 71.9166 55.0681C71.4468 54.6797 71.2119 54.1749 71.2119 53.5147C71.2119 52.8933 71.4468 52.3885 71.9166 52.0001C72.4255 51.6118 73.0519 51.4176 73.8349 51.4176ZM72.6604 52.5826C72.3472 52.8156 72.2298 53.1263 72.2298 53.5147C72.2298 53.903 72.3864 54.2137 72.6604 54.4467C72.9736 54.6797 73.3651 54.7962 73.8349 54.7962C74.3047 54.7962 74.6962 54.6797 75.0093 54.4467C75.3225 54.2137 75.4791 53.903 75.4791 53.5147C75.4791 53.1263 75.3225 52.8545 75.0093 52.6215C74.6962 52.3885 74.3047 52.272 73.8349 52.272C73.3651 52.2331 72.9736 52.3496 72.6604 52.5826ZM77.8672 51.4953H80.6076C81.1166 51.4953 81.4689 51.5729 81.743 51.7671C82.017 51.9224 82.1344 52.1943 82.1344 52.505C82.1344 52.8545 81.9779 53.1652 81.7038 53.3593V53.3982C82.0953 53.6312 82.291 53.9419 82.291 54.369C82.291 54.7574 82.1736 55.0292 81.8604 55.2234C81.5864 55.4176 81.1949 55.5341 80.6859 55.5341H77.8672V51.4953ZM78.8851 52.3885V54.6797H80.7251C80.9208 54.6797 81.0383 54.6409 81.1557 54.5632C81.2732 54.4855 81.3123 54.4079 81.3123 54.2914C81.3123 54.1749 81.2732 54.0584 81.1557 54.0195C81.0383 53.9419 80.9208 53.903 80.7251 53.903H79.1591L79.5115 53.0487H80.7251C80.8817 53.0487 80.96 53.0098 81.0774 52.971C81.1557 52.8933 81.1949 52.8156 81.1949 52.738C81.1949 52.6215 81.1557 52.5438 81.0774 52.505C80.9991 52.4661 80.8817 52.4273 80.7251 52.4273H78.8851V52.3885ZM86.1668 51.4953H88.9072C89.4162 51.4953 89.7685 51.5729 90.0425 51.7671C90.3166 51.9224 90.434 52.1943 90.434 52.505C90.434 52.8545 90.2774 53.1652 90.0034 53.3593V53.3982C90.3949 53.6312 90.5906 53.9419 90.5906 54.369C90.5906 54.7574 90.4732 55.0292 90.16 55.2234C89.8859 55.4176 89.4944 55.5341 88.9855 55.5341H86.1668V51.4953ZM87.1847 52.3885V54.6797H89.0247C89.2204 54.6797 89.3379 54.6409 89.4553 54.5632C89.5727 54.4855 89.6119 54.4079 89.6119 54.2914C89.6119 54.1749 89.5727 54.0584 89.4553 54.0195C89.3379 53.9419 89.2204 53.903 89.0247 53.903H87.4587L87.811 53.0487H89.0247C89.1813 53.0487 89.2596 53.0098 89.377 52.971C89.4553 52.8933 89.4945 52.8156 89.4945 52.738C89.4945 52.6215 89.4553 52.5438 89.377 52.505C89.2987 52.4661 89.1813 52.4273 89.0247 52.4273H87.1847V52.3885ZM99.2425 51.0292L98.8902 51.9224C98.3813 51.6506 97.8332 51.4953 97.2459 51.4953C96.6587 51.4953 96.1889 51.6506 95.8757 51.9224C95.5234 52.1943 95.3668 52.5826 95.3668 53.0487C95.3668 53.5535 95.5625 53.9419 95.9149 54.2525C96.3064 54.5632 96.7762 54.7186 97.4025 54.7186C98.1072 54.7186 98.6945 54.5244 99.2425 54.1749V55.2234C98.6945 55.4953 98.0289 55.6506 97.3634 55.6506C96.463 55.6506 95.7191 55.4176 95.171 54.9516C94.623 54.4855 94.3098 53.8642 94.3098 53.0875C94.3098 52.3496 94.5838 51.7671 95.1319 51.3011C95.68 50.8351 96.3847 50.6021 97.2851 50.6021C97.9115 50.6021 98.577 50.7574 99.2425 51.0292ZM101.043 55.5341H99.9864L102.022 51.5341H103.197L105.232 55.5341H104.136L103.745 54.7962H101.396L101.043 55.5341ZM102.57 52.3496L101.748 53.9807H103.392L102.57 52.3496ZM106.25 51.4953H107.268V53.0098H109.656V51.4953H110.674V55.5341H109.617V53.903H107.268V55.5341H106.25V51.4953ZM115.294 51.4953H116.468L114.746 53.3205L116.664 55.4952H115.372L113.532 53.3593L115.294 51.4953ZM112.279 51.4953H113.297V55.5341H112.279V51.4953ZM117.094 51.4953H121.323V52.3885H119.717V55.4952H118.7V52.3885H117.094V51.4953ZM121.597 53.7088V52.9321H124.18V53.7088H121.597ZM125.59 50.7186H130.483V55.5341H129.426V51.6506H126.608V55.5341H125.551V50.7186H125.59ZM132.284 51.4953H135.925V52.3496H133.263V53.0487H135.729L135.377 53.903H133.263V54.6409H136.121V55.4952H132.245V51.4953H132.284ZM136.943 51.4953H141.171V52.3885H139.566V55.4952H138.548V52.3885H136.943V51.4953ZM142.189 51.4953H145.83V52.3496H143.168V53.0487H145.634L145.282 53.903H143.168V54.6409H146.026V55.4952H142.15V51.4953H142.189ZM147.474 51.4953H150.058C150.567 51.4953 150.958 51.6118 151.232 51.8448C151.506 52.0778 151.663 52.4273 151.663 52.8156C151.663 53.2428 151.506 53.5535 151.232 53.7865C150.958 54.0195 150.567 54.136 150.058 54.136H148.766L149.157 53.2817H150.175C150.332 53.2817 150.449 53.2428 150.528 53.1652C150.606 53.0875 150.645 52.971 150.645 52.8156C150.645 52.6603 150.606 52.5438 150.488 52.4661C150.41 52.3885 150.254 52.3496 150.097 52.3496H148.492V55.4952H147.474V51.4953ZM152.955 51.4953H156.831V52.3496H153.973V54.6409H155.813C156.204 54.6409 156.439 54.5244 156.439 54.2525C156.439 54.136 156.4 54.0195 156.283 53.9419C156.165 53.8642 156.008 53.8254 155.813 53.8254H154.247L154.599 52.971H155.774C156.283 52.971 156.674 53.0875 156.948 53.3205C157.222 53.5535 157.379 53.8642 157.379 54.2525C157.379 54.6409 157.222 54.9516 156.948 55.1846C156.674 55.4176 156.283 55.5341 155.774 55.5341H152.955V51.4953ZM160.55 55.5341H159.493L160.354 54.0195L159.845 54.0972L158.123 51.5341H159.258L160.589 53.5535L161.724 51.5341H162.82L160.55 55.5341ZM163.799 51.4953H166.383C166.892 51.4953 167.283 51.6118 167.557 51.8448C167.831 52.0778 167.988 52.4273 167.988 52.8156C167.988 53.2428 167.831 53.5535 167.557 53.7865C167.283 54.0195 166.892 54.136 166.383 54.136H165.091L165.483 53.2817H166.5C166.657 53.2817 166.774 53.2428 166.853 53.1652C166.931 53.0875 166.97 52.971 166.97 52.8156C166.97 52.6603 166.931 52.5438 166.814 52.4661C166.735 52.3885 166.579 52.3496 166.422 52.3496H164.817V55.4952H163.799V51.4953ZM169.28 51.4953H172.49V52.3496H170.298V55.4952H169.28V51.4953ZM173.508 51.4953H177.149V52.3496H174.487V53.0487H176.953L176.601 53.903H174.487V54.6409H177.345V55.4952H173.469V51.4953H173.508Z" fill="#4878A6"/>
</svg>
