<svg width="280" height="160" viewBox="0 0 280 160" fill="none" xmlns="http://www.w3.org/2000/svg">
<rect width="280" height="160" rx="8" fill="#EDF2F6"/>
<path d="M35.392 54.8C36.416 54.8 37.2213 54.9067 37.808 55.12C38.3947 55.3333 38.8107 55.7013 39.056 56.224C39.312 56.7467 39.44 57.4773 39.44 58.416C39.44 59.3547 39.3173 60.0853 39.072 60.608C38.8373 61.1307 38.4427 61.4933 37.888 61.696C37.344 61.8987 36.6133 62.0053 35.696 62.016C35.3333 62.0053 34.9707 61.9893 34.608 61.968C34.256 61.9467 33.9147 61.92 33.584 61.888V66H31.152V54.96C31.5893 54.9173 32.0053 54.8853 32.4 54.864C32.7947 54.8427 33.2213 54.8267 33.68 54.816C34.1493 54.8053 34.72 54.8 35.392 54.8ZM35.328 56.64C35.008 56.64 34.6987 56.64 34.4 56.64C34.112 56.64 33.84 56.64 33.584 56.64V60.176H35.328C35.968 60.176 36.4053 60.0587 36.64 59.824C36.8747 59.5893 36.992 59.12 36.992 58.416C36.992 57.712 36.8747 57.2427 36.64 57.008C36.4053 56.7627 35.968 56.64 35.328 56.64ZM45.0739 57.888C46.0659 57.888 46.8285 58.096 47.3619 58.512C47.8952 58.928 48.1619 59.68 48.1619 60.768V66H46.2899L46.0339 64.752C45.7459 65.0827 45.3512 65.4027 44.8499 65.712C44.3592 66.0213 43.7619 66.176 43.0579 66.176C42.3432 66.176 41.7405 65.9893 41.2499 65.616C40.7699 65.2427 40.5299 64.688 40.5299 63.952V63.136C40.5299 62.5067 40.7379 62.016 41.1539 61.664C41.5805 61.312 42.1725 61.136 42.9299 61.136H45.7939V60.768C45.7832 60.384 45.6872 60.112 45.5059 59.952C45.3352 59.7813 45.0099 59.696 44.5299 59.696C44.1139 59.696 43.6019 59.712 42.9939 59.744C42.3859 59.7653 41.7619 59.7973 41.1219 59.84L40.9139 58.272C41.2979 58.208 41.7352 58.1493 42.2259 58.096C42.7272 58.032 43.2285 57.984 43.7299 57.952C44.2312 57.9093 44.6792 57.888 45.0739 57.888ZM43.7939 64.464C44.0819 64.464 44.4019 64.4 44.7539 64.272C45.1165 64.1333 45.4632 63.9413 45.7939 63.696V62.464H43.6659C43.3779 62.4747 43.1699 62.5493 43.0419 62.688C42.9139 62.8267 42.8499 63.0133 42.8499 63.248V63.632C42.8499 64.1867 43.1645 64.464 43.7939 64.464ZM53.7498 57.888C54.1658 57.888 54.6458 57.9253 55.1898 58C55.7444 58.064 56.2404 58.1867 56.6778 58.368L56.4218 59.856C55.5578 59.824 54.8004 59.808 54.1498 59.808C53.6698 59.808 53.2858 59.872 52.9978 60C52.7204 60.128 52.5231 60.3573 52.4058 60.688C52.2884 61.008 52.2298 61.456 52.2298 62.032C52.2298 62.6293 52.2884 63.0933 52.4058 63.424C52.5231 63.744 52.7204 63.968 52.9978 64.096C53.2858 64.224 53.6698 64.288 54.1498 64.288C54.4058 64.288 54.7631 64.2827 55.2218 64.272C55.6804 64.2507 56.1338 64.208 56.5818 64.144L56.8058 65.648C56.3684 65.84 55.8778 65.9787 55.3338 66.064C54.8004 66.1493 54.2671 66.192 53.7338 66.192C52.7524 66.192 51.9684 66.0587 51.3818 65.792C50.8058 65.5253 50.3898 65.088 50.1338 64.48C49.8778 63.872 49.7498 63.056 49.7498 62.032C49.7498 61.0187 49.8778 60.2133 50.1338 59.616C50.4004 59.008 50.8218 58.5707 51.3978 58.304C51.9844 58.0267 52.7684 57.888 53.7498 57.888ZM65.826 58.096V66H63.522V59.728H60.546V66H58.258V58.096H65.826ZM69.7245 58.096L69.9165 59.28C70.2472 58.8747 70.6898 58.544 71.2445 58.288C71.8098 58.032 72.3965 57.904 73.0045 57.904C73.9965 57.904 74.7058 58.2667 75.1325 58.992C75.5698 59.7173 75.7885 60.7573 75.7885 62.112C75.7885 63.168 75.6765 63.9947 75.4525 64.592C75.2285 65.1787 74.8925 65.5947 74.4445 65.84C74.0072 66.0853 73.4578 66.208 72.7965 66.208C72.3058 66.208 71.8312 66.144 71.3725 66.016C70.9138 65.8987 70.4978 65.7013 70.1245 65.424C70.1458 65.7013 70.1618 65.984 70.1725 66.272C70.1832 66.56 70.1832 66.8427 70.1725 67.12V69.04H67.8205V58.096H69.7245ZM72.0605 59.712C71.7085 59.712 71.3885 59.776 71.1005 59.904C70.8232 60.032 70.5138 60.2133 70.1725 60.448V64.176C70.4818 64.2613 70.7698 64.3413 71.0365 64.416C71.3032 64.48 71.6072 64.512 71.9485 64.512C72.2898 64.512 72.5618 64.4533 72.7645 64.336C72.9672 64.2187 73.1165 63.9893 73.2125 63.648C73.3085 63.3067 73.3565 62.8 73.3565 62.128C73.3565 61.4773 73.3085 60.976 73.2125 60.624C73.1272 60.272 72.9885 60.032 72.7965 59.904C72.6152 59.776 72.3698 59.712 72.0605 59.712ZM81.1891 57.888C82.1811 57.888 82.9705 58.0267 83.5571 58.304C84.1545 58.5707 84.5865 59.0133 84.8531 59.632C85.1198 60.24 85.2531 61.0507 85.2531 62.064C85.2531 63.0773 85.1198 63.888 84.8531 64.496C84.5865 65.0933 84.1545 65.5253 83.5571 65.792C82.9705 66.0587 82.1811 66.192 81.1891 66.192C80.1971 66.192 79.4025 66.0587 78.8051 65.792C78.2078 65.5253 77.7758 65.0933 77.5091 64.496C77.2425 63.888 77.1091 63.0773 77.1091 62.064C77.1091 61.0507 77.2425 60.24 77.5091 59.632C77.7758 59.0133 78.2078 58.5707 78.8051 58.304C79.4025 58.0267 80.1971 57.888 81.1891 57.888ZM81.1891 59.6C80.7731 59.6 80.4478 59.6693 80.2131 59.808C79.9785 59.9467 79.8131 60.1973 79.7171 60.56C79.6318 60.912 79.5891 61.4133 79.5891 62.064C79.5891 62.704 79.6318 63.2 79.7171 63.552C79.8131 63.904 79.9785 64.1493 80.2131 64.288C80.4478 64.416 80.7731 64.48 81.1891 64.48C81.6051 64.48 81.9251 64.416 82.1491 64.288C82.3838 64.1493 82.5491 63.904 82.6451 63.552C82.7411 63.2 82.7891 62.704 82.7891 62.064C82.7891 61.4133 82.7411 60.912 82.6451 60.56C82.5491 60.1973 82.3838 59.9467 82.1491 59.808C81.9251 59.6693 81.6051 59.6 81.1891 59.6ZM95.3988 64.368V68.24H93.8468L93.6708 66H87.7508L87.5908 68.24H86.0388V64.368H86.9988C87.2868 63.6427 87.5054 62.9173 87.6548 62.192C87.8041 61.456 87.9268 60.7147 88.0228 59.968C88.0868 59.36 88.2948 58.896 88.6468 58.576C88.9988 58.256 89.5108 58.096 90.1828 58.096H94.1828V64.368H95.3988ZM90.0708 60.416C89.9748 61.2373 89.8468 61.968 89.6868 62.608C89.5268 63.248 89.3188 63.8347 89.0628 64.368H91.9588V59.664H90.8868C90.4068 59.664 90.1348 59.9147 90.0708 60.416ZM100.949 57.888C101.941 57.888 102.704 58.096 103.237 58.512C103.77 58.928 104.037 59.68 104.037 60.768V66H102.165L101.909 64.752C101.621 65.0827 101.226 65.4027 100.725 65.712C100.234 66.0213 99.6369 66.176 98.9329 66.176C98.2182 66.176 97.6155 65.9893 97.1249 65.616C96.6449 65.2427 96.4049 64.688 96.4049 63.952V63.136C96.4049 62.5067 96.6129 62.016 97.0289 61.664C97.4555 61.312 98.0475 61.136 98.8049 61.136H101.669V60.768C101.658 60.384 101.562 60.112 101.381 59.952C101.21 59.7813 100.885 59.696 100.405 59.696C99.9889 59.696 99.4769 59.712 98.8689 59.744C98.2609 59.7653 97.6369 59.7973 96.9969 59.84L96.7889 58.272C97.1729 58.208 97.6102 58.1493 98.1009 58.096C98.6022 58.032 99.1035 57.984 99.6049 57.952C100.106 57.9093 100.554 57.888 100.949 57.888ZM99.6689 64.464C99.9569 64.464 100.277 64.4 100.629 64.272C100.992 64.1333 101.338 63.9413 101.669 63.696V62.464H99.5409C99.2529 62.4747 99.0449 62.5493 98.9169 62.688C98.7889 62.8267 98.7249 63.0133 98.7249 63.248V63.632C98.7249 64.1867 99.0395 64.464 99.6689 64.464ZM107.865 58.096C108.142 58.9067 108.366 59.5307 108.537 59.968C108.718 60.4053 108.905 60.7093 109.097 60.88C109.299 61.04 109.566 61.12 109.897 61.12H110.633C110.569 60.8107 110.537 60.4853 110.537 60.144V58.096H112.601V60.16C112.601 60.4907 112.569 60.8107 112.505 61.12H113.193C113.523 61.12 113.785 61.04 113.977 60.88C114.179 60.7093 114.371 60.4053 114.553 59.968C114.734 59.5307 114.958 58.9067 115.225 58.096H117.561C117.315 58.832 117.107 59.4347 116.937 59.904C116.777 60.3627 116.606 60.7253 116.425 60.992C116.254 61.2587 116.035 61.456 115.769 61.584C115.513 61.7013 115.166 61.7867 114.729 61.84V61.904C115.177 61.968 115.539 62.064 115.817 62.192C116.105 62.3093 116.345 62.512 116.537 62.8C116.739 63.0773 116.931 63.472 117.113 63.984C117.305 64.496 117.539 65.168 117.817 66H115.417C115.161 65.2747 114.947 64.6933 114.777 64.256C114.606 63.808 114.451 63.472 114.313 63.248C114.174 63.0133 114.019 62.8587 113.849 62.784C113.689 62.7093 113.481 62.672 113.225 62.672H112.505C112.569 62.9493 112.601 63.184 112.601 63.376V66H110.537V63.376C110.537 63.184 110.563 62.9493 110.617 62.672H109.849C109.603 62.6827 109.401 62.7253 109.241 62.8C109.081 62.8747 108.931 63.0293 108.793 63.264C108.654 63.488 108.499 63.8187 108.329 64.256C108.158 64.6933 107.945 65.2747 107.689 66H105.305C105.571 65.168 105.795 64.496 105.977 63.984C106.169 63.472 106.361 63.0773 106.553 62.8C106.745 62.512 106.979 62.3093 107.257 62.192C107.545 62.064 107.923 61.968 108.393 61.904V61.84C107.945 61.7867 107.587 61.7013 107.321 61.584C107.065 61.456 106.846 61.2587 106.665 60.992C106.494 60.7253 106.323 60.3627 106.153 59.904C105.993 59.4347 105.79 58.832 105.545 58.096H107.865ZM123.277 57.888C124.269 57.888 125.032 58.096 125.565 58.512C126.098 58.928 126.365 59.68 126.365 60.768V66H124.493L124.237 64.752C123.949 65.0827 123.554 65.4027 123.053 65.712C122.562 66.0213 121.965 66.176 121.261 66.176C120.546 66.176 119.944 65.9893 119.453 65.616C118.973 65.2427 118.733 64.688 118.733 63.952V63.136C118.733 62.5067 118.941 62.016 119.357 61.664C119.784 61.312 120.376 61.136 121.133 61.136H123.997V60.768C123.986 60.384 123.89 60.112 123.709 59.952C123.538 59.7813 123.213 59.696 122.733 59.696C122.317 59.696 121.805 59.712 121.197 59.744C120.589 59.7653 119.965 59.7973 119.325 59.84L119.117 58.272C119.501 58.208 119.938 58.1493 120.429 58.096C120.93 58.032 121.432 57.984 121.933 57.952C122.434 57.9093 122.882 57.888 123.277 57.888ZM121.997 64.464C122.285 64.464 122.605 64.4 122.957 64.272C123.32 64.1333 123.666 63.9413 123.997 63.696V62.464H121.869C121.581 62.4747 121.373 62.5493 121.245 62.688C121.117 62.8267 121.053 63.0133 121.053 63.248V63.632C121.053 64.1867 121.368 64.464 121.997 64.464ZM39.68 83.368V87.24H38.128L37.952 85H32.032L31.872 87.24H30.32V83.368H31.28C31.568 82.6427 31.7867 81.9173 31.936 81.192C32.0853 80.456 32.208 79.7147 32.304 78.968C32.368 78.36 32.576 77.896 32.928 77.576C33.28 77.256 33.792 77.096 34.464 77.096H38.464V83.368H39.68ZM34.352 79.416C34.256 80.2373 34.128 80.968 33.968 81.608C33.808 82.248 33.6 82.8347 33.344 83.368H36.24V78.664H35.168C34.688 78.664 34.416 78.9147 34.352 79.416ZM44.7829 76.888C45.7749 76.888 46.5642 77.0267 47.1509 77.304C47.7482 77.5707 48.1802 78.0133 48.4469 78.632C48.7135 79.24 48.8469 80.0507 48.8469 81.064C48.8469 82.0773 48.7135 82.888 48.4469 83.496C48.1802 84.0933 47.7482 84.5253 47.1509 84.792C46.5642 85.0587 45.7749 85.192 44.7829 85.192C43.7909 85.192 42.9962 85.0587 42.3989 84.792C41.8015 84.5253 41.3695 84.0933 41.1029 83.496C40.8362 82.888 40.7029 82.0773 40.7029 81.064C40.7029 80.0507 40.8362 79.24 41.1029 78.632C41.3695 78.0133 41.8015 77.5707 42.3989 77.304C42.9962 77.0267 43.7909 76.888 44.7829 76.888ZM44.7829 78.6C44.3669 78.6 44.0415 78.6693 43.8069 78.808C43.5722 78.9467 43.4069 79.1973 43.3109 79.56C43.2255 79.912 43.1829 80.4133 43.1829 81.064C43.1829 81.704 43.2255 82.2 43.3109 82.552C43.4069 82.904 43.5722 83.1493 43.8069 83.288C44.0415 83.416 44.3669 83.48 44.7829 83.48C45.1989 83.48 45.5189 83.416 45.7429 83.288C45.9775 83.1493 46.1429 82.904 46.2389 82.552C46.3349 82.2 46.3829 81.704 46.3829 81.064C46.3829 80.4133 46.3349 79.912 46.2389 79.56C46.1429 79.1973 45.9775 78.9467 45.7429 78.808C45.5189 78.6693 45.1989 78.6 44.7829 78.6ZM65.7688 80.168V81.672H53.8968V80.168H65.7688ZM77.9963 73.96L77.9163 75.8H73.3243L73.1963 77.88L74.8123 78.056C75.7083 78.1413 76.4123 78.344 76.9243 78.664C77.4363 78.9733 77.7989 79.3787 78.0123 79.88C78.2256 80.3813 78.3323 80.9627 78.3323 81.624C78.3323 82.104 78.2736 82.5573 78.1562 82.984C78.0389 83.4107 77.8363 83.7947 77.5483 84.136C77.2709 84.4667 76.8763 84.728 76.3643 84.92C75.8629 85.1013 75.2283 85.192 74.4603 85.192C73.9483 85.192 73.3669 85.16 72.7163 85.096C72.0763 85.0427 71.4256 84.9573 70.7643 84.84L70.9883 82.984C71.5109 83.048 72.0176 83.096 72.5082 83.128C73.0096 83.16 73.4523 83.176 73.8363 83.176C74.4016 83.176 74.8283 83.1173 75.1163 83C75.4149 82.8827 75.6176 82.7067 75.7243 82.472C75.8416 82.2267 75.9056 81.9227 75.9163 81.56C75.9376 81.0907 75.8629 80.744 75.6923 80.52C75.5216 80.296 75.2389 80.1413 74.8443 80.056C74.4603 79.96 73.9429 79.8907 73.2923 79.848L71.9163 79.704C71.6923 79.672 71.5109 79.576 71.3723 79.416C71.2336 79.256 71.1696 79.064 71.1803 78.84L71.4683 73.96H77.9963ZM84.0244 73.736C85.0804 73.736 85.9177 73.9227 86.5364 74.296C87.1657 74.6693 87.6137 75.2773 87.8804 76.12C88.1577 76.952 88.2964 78.072 88.2964 79.48C88.2964 80.888 88.1577 82.0133 87.8804 82.856C87.6137 83.688 87.1657 84.2907 86.5364 84.664C85.9177 85.0267 85.0804 85.208 84.0244 85.208C82.9684 85.208 82.1257 85.0267 81.4964 84.664C80.8777 84.2907 80.435 83.688 80.1684 82.856C79.9017 82.0133 79.7684 80.888 79.7684 79.48C79.7684 78.072 79.9017 76.952 80.1684 76.12C80.435 75.2773 80.8777 74.6693 81.4964 74.296C82.1257 73.9227 82.9684 73.736 84.0244 73.736ZM84.0084 75.64C83.539 75.64 83.171 75.752 82.9044 75.976C82.6377 76.1893 82.451 76.5733 82.3444 77.128C82.2377 77.672 82.1844 78.456 82.1844 79.48C82.1844 80.504 82.2377 81.2933 82.3444 81.848C82.451 82.392 82.6377 82.7707 82.9044 82.984C83.171 83.1973 83.539 83.304 84.0084 83.304C84.4884 83.304 84.8617 83.1973 85.1284 82.984C85.4057 82.7707 85.5977 82.392 85.7044 81.848C85.8217 81.2933 85.8804 80.504 85.8804 79.48C85.8804 78.456 85.8217 77.672 85.7044 77.128C85.5977 76.5733 85.4057 76.1893 85.1284 75.976C84.8617 75.752 84.4884 75.64 84.0084 75.64ZM92.3425 73.736C93.0252 73.736 93.5638 73.8427 93.9585 74.056C94.3638 74.2693 94.6518 74.616 94.8225 75.096C95.0038 75.5653 95.0945 76.2107 95.0945 77.032C95.0945 77.8427 95.0038 78.488 94.8225 78.968C94.6518 79.448 94.3638 79.7947 93.9585 80.008C93.5638 80.2107 93.0252 80.312 92.3425 80.312C91.6705 80.312 91.1318 80.2107 90.7265 80.008C90.3318 79.7947 90.0492 79.448 89.8785 78.968C89.7078 78.488 89.6225 77.8427 89.6225 77.032C89.6225 76.2107 89.7078 75.5653 89.8785 75.096C90.0492 74.616 90.3318 74.2693 90.7265 74.056C91.1318 73.8427 91.6705 73.736 92.3425 73.736ZM100.359 73.96L93.7505 85H92.2625L98.8705 73.96H100.359ZM92.3425 75.048C92.0865 75.048 91.8838 75.1013 91.7345 75.208C91.5958 75.3147 91.4998 75.512 91.4465 75.8C91.3932 76.0773 91.3665 76.488 91.3665 77.032C91.3665 77.576 91.3932 77.992 91.4465 78.28C91.4998 78.568 91.5958 78.7653 91.7345 78.872C91.8838 78.968 92.0865 79.016 92.3425 79.016C92.6092 79.016 92.8118 78.968 92.9505 78.872C93.0998 78.7653 93.2012 78.568 93.2545 78.28C93.3185 77.992 93.3505 77.576 93.3505 77.032C93.3505 76.488 93.3185 76.0773 93.2545 75.8C93.2012 75.512 93.0998 75.3147 92.9505 75.208C92.8118 75.1013 92.6092 75.048 92.3425 75.048ZM100.295 78.616C100.967 78.616 101.5 78.7227 101.895 78.936C102.3 79.1387 102.588 79.48 102.759 79.96C102.94 80.44 103.031 81.0853 103.031 81.896C103.031 82.7067 102.94 83.3573 102.759 83.848C102.588 84.328 102.3 84.6693 101.895 84.872C101.5 85.0747 100.967 85.176 100.295 85.176C99.6118 85.176 99.0732 85.0747 98.6785 84.872C98.2838 84.6693 97.9958 84.328 97.8145 83.848C97.6438 83.3573 97.5585 82.7067 97.5585 81.896C97.5585 81.0853 97.6438 80.44 97.8145 79.96C97.9958 79.48 98.2838 79.1387 98.6785 78.936C99.0732 78.7227 99.6118 78.616 100.295 78.616ZM100.279 79.912C100.023 79.912 99.8198 79.9653 99.6705 80.072C99.5318 80.1787 99.4358 80.376 99.3825 80.664C99.3292 80.9413 99.3025 81.352 99.3025 81.896C99.3025 82.44 99.3292 82.856 99.3825 83.144C99.4358 83.432 99.5318 83.6293 99.6705 83.736C99.8198 83.832 100.023 83.88 100.279 83.88C100.545 83.88 100.748 83.832 100.887 83.736C101.036 83.6293 101.137 83.432 101.191 83.144C101.255 82.856 101.287 82.44 101.287 81.896C101.287 81.352 101.255 80.9413 101.191 80.664C101.137 80.376 101.036 80.1787 100.887 80.072C100.748 79.9653 100.545 79.912 100.279 79.912Z" fill="#070C11"/>
<path d="M187.786 34.645C192.335 34.645 195.924 35.3538 198.554 36.7715C201.254 38.1891 203.173 40.4928 204.311 43.6825C205.519 46.8014 206.123 51.0898 206.123 56.5477C206.123 61.9348 205.519 66.2232 204.311 69.4129C203.173 72.6026 201.254 74.9063 198.554 76.3239C195.924 77.6707 192.335 78.3441 187.786 78.3441C183.309 78.3441 179.72 77.6707 177.019 76.3239C174.389 74.9063 172.506 72.6026 171.369 69.4129C170.232 66.2232 169.663 61.9348 169.663 56.5477C169.663 51.0898 170.232 46.8014 171.369 43.6825C172.506 40.4928 174.389 38.1891 177.019 36.7715C179.72 35.3538 183.309 34.645 187.786 34.645ZM241.197 36.1336L197.168 109.497H187.253L231.282 36.1336H241.197ZM187.786 43.3636C186.081 43.3636 184.73 43.718 183.735 44.4268C182.811 45.1356 182.172 46.4469 181.816 48.3608C181.461 50.2037 181.283 52.9327 181.283 56.5477C181.283 60.1627 181.461 62.9271 181.816 64.8409C182.172 66.7548 182.811 68.0661 183.735 68.7749C184.73 69.4129 186.081 69.7318 187.786 69.7318C189.563 69.7318 190.914 69.4129 191.837 68.7749C192.832 68.0661 193.508 66.7548 193.863 64.8409C194.289 62.9271 194.503 60.1627 194.503 56.5477C194.503 52.9327 194.289 50.2037 193.863 48.3608C193.508 46.4469 192.832 45.1356 191.837 44.4268C190.914 43.718 189.563 43.3636 187.786 43.3636ZM240.77 67.0737C245.248 67.0737 248.801 67.7826 251.431 69.2002C254.132 70.547 256.051 72.8152 257.188 76.0049C258.396 79.1946 259 83.483 259 88.8701C259 94.2572 258.396 98.581 257.188 101.842C256.051 105.031 254.132 107.3 251.431 108.646C248.801 109.993 245.248 110.666 240.77 110.666C236.222 110.666 232.633 109.993 230.003 108.646C227.373 107.3 225.454 105.031 224.246 101.842C223.109 98.581 222.54 94.2572 222.54 88.8701C222.54 83.483 223.109 79.1946 224.246 76.0049C225.454 72.8152 227.373 70.547 230.003 69.2002C232.633 67.7826 236.222 67.0737 240.77 67.0737ZM240.664 75.686C238.958 75.686 237.608 76.0404 236.613 76.7492C235.689 77.458 235.049 78.7694 234.694 80.6832C234.338 82.5261 234.161 85.2551 234.161 88.8701C234.161 92.4851 234.338 95.2495 234.694 97.1634C235.049 99.0772 235.689 100.389 236.613 101.097C237.608 101.735 238.958 102.054 240.664 102.054C242.44 102.054 243.791 101.735 244.715 101.097C245.71 100.389 246.385 99.0772 246.74 97.1634C247.167 95.2495 247.38 92.4851 247.38 88.8701C247.38 85.2551 247.167 82.5261 246.74 80.6832C246.385 78.7694 245.71 77.458 244.715 76.7492C243.791 76.0404 242.44 75.686 240.664 75.686Z" fill="#F15152"/>
<mask id="path-4-outside-1_105_4112" maskUnits="userSpaceOnUse" x="160" y="25" width="96" height="83" fill="black">
<rect fill="white" x="160" y="25" width="96" height="83"/>
<path d="M181.123 28C185.672 28 189.261 28.7088 191.891 30.1265C194.591 31.5441 196.51 33.8478 197.647 37.0375C198.856 40.1563 199.46 44.4447 199.46 49.9027C199.46 55.2897 198.856 59.5781 197.647 62.7678C196.51 65.9576 194.591 68.2612 191.891 69.6789C189.261 71.0257 185.672 71.699 181.123 71.699C176.646 71.699 173.057 71.0257 170.356 69.6789C167.726 68.2612 165.843 65.9576 164.706 62.7678C163.569 59.5781 163 55.2897 163 49.9027C163 44.4447 163.569 40.1563 164.706 37.0375C165.843 33.8478 167.726 31.5441 170.356 30.1265C173.057 28.7088 176.646 28 181.123 28ZM234.534 29.4885L190.505 102.852H180.59L224.619 29.4885H234.534ZM181.123 36.7185C179.418 36.7185 178.067 37.073 177.072 37.7818C176.148 38.4906 175.509 39.8019 175.153 41.7158C174.798 43.5587 174.62 46.2877 174.62 49.9027C174.62 53.5177 174.798 56.2821 175.153 58.1959C175.509 60.1098 176.148 61.4211 177.072 62.1299C178.067 62.7678 179.418 63.0868 181.123 63.0868C182.9 63.0868 184.25 62.7678 185.174 62.1299C186.169 61.4211 186.845 60.1098 187.2 58.1959C187.626 56.2821 187.84 53.5177 187.84 49.9027C187.84 46.2877 187.626 43.5587 187.2 41.7158C186.845 39.8019 186.169 38.4906 185.174 37.7818C184.25 37.073 182.9 36.7185 181.123 36.7185ZM234.107 60.4287C238.585 60.4287 242.138 61.1376 244.768 62.5552C247.469 63.902 249.388 66.1702 250.525 69.3599C251.733 72.5496 252.337 76.838 252.337 82.2251C252.337 87.6121 251.733 91.936 250.525 95.1966C249.388 98.3863 247.469 100.655 244.768 102.001C242.138 103.348 238.585 104.021 234.107 104.021C229.559 104.021 225.969 103.348 223.34 102.001C220.71 100.655 218.791 98.3863 217.583 95.1966C216.446 91.936 215.877 87.6121 215.877 82.2251C215.877 76.838 216.446 72.5496 217.583 69.3599C218.791 66.1702 220.71 63.902 223.34 62.5552C225.969 61.1376 229.559 60.4287 234.107 60.4287ZM234.001 69.0409C232.295 69.0409 230.944 69.3954 229.949 70.1042C229.026 70.813 228.386 72.1243 228.031 74.0382C227.675 75.8811 227.498 78.6101 227.498 82.2251C227.498 85.8401 227.675 88.6045 228.031 90.5183C228.386 92.4322 229.026 93.7435 229.949 94.4523C230.944 95.0902 232.295 95.4092 234.001 95.4092C235.777 95.4092 237.128 95.0902 238.052 94.4523C239.047 93.7435 239.722 92.4322 240.077 90.5183C240.504 88.6045 240.717 85.8401 240.717 82.2251C240.717 78.6101 240.504 75.8811 240.077 74.0382C239.722 72.1243 239.047 70.813 238.052 70.1042C237.128 69.3954 235.777 69.0409 234.001 69.0409Z"/>
</mask>
<path d="M191.891 30.1265L190.467 32.7672L190.482 32.7751L190.496 32.7828L191.891 30.1265ZM197.647 37.0375L194.822 38.0449L194.835 38.0833L194.85 38.1212L197.647 37.0375ZM197.647 62.7678L194.842 61.7052L194.832 61.7327L194.822 61.7604L197.647 62.7678ZM191.891 69.6789L193.258 72.3491L193.272 72.3422L193.285 72.3352L191.891 69.6789ZM170.356 69.6789L168.932 72.3196L168.974 72.3423L169.017 72.3636L170.356 69.6789ZM164.706 62.7678L161.88 63.7753L161.88 63.7753L164.706 62.7678ZM164.706 37.0375L167.524 38.0652L167.528 38.0551L167.532 38.0449L164.706 37.0375ZM170.356 30.1265L168.962 27.4702L168.947 27.4779L168.932 27.4858L170.356 30.1265ZM234.534 29.4885L237.106 31.0323L239.833 26.4885H234.534V29.4885ZM190.505 102.852V105.852H192.203L193.077 104.396L190.505 102.852ZM180.59 102.852L178.018 101.308L175.291 105.852H180.59V102.852ZM224.619 29.4885V26.4885H222.921L222.047 27.9448L224.619 29.4885ZM177.072 37.7818L175.332 35.3384L175.288 35.3692L175.246 35.4016L177.072 37.7818ZM175.153 41.7158L178.099 42.2838L178.101 42.2736L178.103 42.2634L175.153 41.7158ZM175.153 58.1959L172.204 58.7436L172.204 58.7436L175.153 58.1959ZM177.072 62.1299L175.246 64.5101L175.346 64.5871L175.453 64.6554L177.072 62.1299ZM185.174 62.1299L186.879 64.5986L186.897 64.5861L186.915 64.5733L185.174 62.1299ZM187.2 58.1959L184.272 57.5435L184.26 57.5957L184.25 57.6482L187.2 58.1959ZM187.2 41.7158L184.25 42.2634L184.262 42.328L184.277 42.392L187.2 41.7158ZM185.174 37.7818L183.348 40.162L183.39 40.1943L183.434 40.2252L185.174 37.7818ZM244.768 62.5552L243.344 65.1959L243.386 65.2186L243.429 65.2399L244.768 62.5552ZM250.525 69.3599L247.699 70.3673L247.709 70.3951L247.719 70.4226L250.525 69.3599ZM250.525 95.1966L247.712 94.1542L247.705 94.1716L247.699 94.1892L250.525 95.1966ZM244.768 102.001L243.429 99.3166L243.415 99.3238L243.4 99.3311L244.768 102.001ZM223.34 102.001L224.707 99.3311L224.707 99.3311L223.34 102.001ZM217.583 95.1966L214.75 96.1845L214.763 96.222L214.778 96.2592L217.583 95.1966ZM217.583 69.3599L214.778 68.2972L214.767 68.3248L214.757 68.3525L217.583 69.3599ZM223.34 62.5552L224.707 65.2254L224.736 65.2109L224.763 65.1959L223.34 62.5552ZM229.949 70.1042L228.209 67.6608L228.166 67.6916L228.123 67.724L229.949 70.1042ZM228.031 74.0382L230.976 74.6062L230.978 74.596L230.98 74.5858L228.031 74.0382ZM229.949 94.4523L228.123 96.8325L228.224 96.9095L228.33 96.9778L229.949 94.4523ZM238.052 94.4523L239.756 96.921L239.774 96.9085L239.792 96.8957L238.052 94.4523ZM240.077 90.5183L237.149 89.8659L237.137 89.9181L237.128 89.9707L240.077 90.5183ZM240.077 74.0382L237.128 74.5858L237.14 74.6504L237.154 74.7144L240.077 74.0382ZM238.052 70.1042L236.226 72.4844L236.268 72.5167L236.311 72.5476L238.052 70.1042ZM181.123 31C185.413 31 188.445 31.677 190.467 32.7672L193.314 27.4858C190.077 25.7407 185.931 25 181.123 25V31ZM190.496 32.7828C192.454 33.8105 193.907 35.4805 194.822 38.0449L200.473 36.0301C199.113 32.2152 196.729 29.2778 193.285 27.4702L190.496 32.7828ZM194.85 38.1212C195.866 40.7447 196.46 44.6111 196.46 49.9027H202.46C202.46 44.2784 201.845 39.568 200.445 35.9538L194.85 38.1212ZM196.46 49.9027C196.46 55.1125 195.869 58.9937 194.842 61.7052L200.453 63.8305C201.842 60.1626 202.46 55.467 202.46 49.9027H196.46ZM194.822 61.7604C193.907 64.3249 192.454 65.9949 190.496 67.0226L193.285 72.3352C196.729 70.5276 199.113 67.5902 200.473 63.7753L194.822 61.7604ZM190.523 67.0087C188.484 68.0529 185.429 68.699 181.123 68.699V74.699C185.914 74.699 190.038 73.9984 193.258 72.3491L190.523 67.0087ZM181.123 68.699C176.904 68.699 173.828 68.0577 171.695 66.9942L169.017 72.3636C172.286 73.9936 176.388 74.699 181.123 74.699V68.699ZM171.78 67.0382C169.891 66.0201 168.455 64.3511 167.532 61.7604L161.88 63.7753C163.231 67.564 165.561 70.5023 168.932 72.3196L171.78 67.0382ZM167.532 61.7604C166.557 59.0276 166 55.1246 166 49.9027H160C160 55.4549 160.58 60.1287 161.88 63.7753L167.532 61.7604ZM166 49.9027C166 44.5994 166.56 40.7106 167.524 38.0652L161.887 36.0099C160.577 39.6021 160 44.2901 160 49.9027H166ZM167.532 38.0449C168.455 35.4543 169.891 33.7852 171.78 32.7672L168.932 27.4858C165.561 29.303 163.231 32.2414 161.88 36.0301L167.532 38.0449ZM171.75 32.7828C173.867 31.6718 176.921 31 181.123 31V25C176.371 25 172.247 25.7458 168.962 27.4702L171.75 32.7828ZM231.961 27.9448L187.932 101.308L193.077 104.396L237.106 31.0323L231.961 27.9448ZM190.505 99.8519H180.59V105.852H190.505V99.8519ZM183.163 104.396L227.191 31.0323L222.047 27.9448L178.018 101.308L183.163 104.396ZM224.619 32.4885H234.534V26.4885H224.619V32.4885ZM181.123 33.7185C179.034 33.7185 177 34.1495 175.332 35.3384L178.813 40.2252C179.134 39.9964 179.801 39.7185 181.123 39.7185V33.7185ZM175.246 35.4016C173.449 36.7805 172.61 38.9808 172.204 41.1681L178.103 42.2634C178.407 40.6231 178.848 40.2007 178.898 40.162L175.246 35.4016ZM172.208 41.1478C171.797 43.2783 171.62 46.2377 171.62 49.9027H177.62C177.62 46.3377 177.799 43.8391 178.099 42.2838L172.208 41.1478ZM171.62 49.9027C171.62 53.5739 171.798 56.5565 172.204 58.7436L178.103 57.6483C177.798 56.0077 177.62 53.4615 177.62 49.9027H171.62ZM172.204 58.7436C172.61 60.9309 173.449 63.1312 175.246 64.5101L178.898 59.7497C178.848 59.711 178.407 59.2886 178.103 57.6483L172.204 58.7436ZM175.453 64.6554C177.101 65.7118 179.085 66.0868 181.123 66.0868V60.0868C179.75 60.0868 179.034 59.8239 178.691 59.6044L175.453 64.6554ZM181.123 66.0868C183.182 66.0868 185.239 65.7307 186.879 64.5986L183.47 59.6612C183.262 59.805 182.618 60.0868 181.123 60.0868V66.0868ZM186.915 64.5733C188.83 63.209 189.733 60.987 190.149 58.7436L184.25 57.6482C183.956 59.2325 183.509 59.6332 183.434 59.6865L186.915 64.5733ZM190.128 58.8484C190.627 56.6112 190.84 53.5863 190.84 49.9027H184.84C184.84 53.449 184.626 55.953 184.272 57.5435L190.128 58.8484ZM190.84 49.9027C190.84 46.2263 190.628 43.2223 190.123 41.0395L184.277 42.392C184.625 43.8951 184.84 46.349 184.84 49.9027H190.84ZM190.149 41.1681C189.733 38.9247 188.83 36.7027 186.915 35.3384L183.434 40.2252C183.509 40.2785 183.956 40.6791 184.25 42.2634L190.149 41.1681ZM187 35.4016C185.341 34.1284 183.232 33.7185 181.123 33.7185V39.7185C182.568 39.7185 183.16 40.0175 183.348 40.162L187 35.4016ZM234.107 63.4287C238.316 63.4287 241.317 64.1028 243.344 65.1959L246.192 59.9145C242.96 58.1723 238.853 57.4287 234.107 57.4287V63.4287ZM243.429 65.2399C245.349 66.1974 246.788 67.811 247.699 70.3673L253.351 68.3525C251.988 64.5294 249.588 61.6065 246.107 59.8705L243.429 65.2399ZM247.719 70.4226C248.746 73.1341 249.337 77.0153 249.337 82.2251H255.337C255.337 76.6607 254.72 71.9652 253.33 68.2972L247.719 70.4226ZM249.337 82.2251C249.337 87.4301 248.748 91.3585 247.712 94.1542L253.338 96.239C254.718 92.5135 255.337 87.7942 255.337 82.2251H249.337ZM247.699 94.1892C246.788 96.7454 245.349 98.3591 243.429 99.3166L246.107 104.686C249.588 102.95 251.988 100.027 253.351 96.204L247.699 94.1892ZM243.4 99.3311C241.356 100.378 238.333 101.021 234.107 101.021V107.021C238.836 107.021 242.92 106.318 246.135 104.671L243.4 99.3311ZM234.107 101.021C229.801 101.021 226.746 100.375 224.707 99.3311L221.972 104.671C225.193 106.321 229.316 107.021 234.107 107.021V101.021ZM224.707 99.3311C222.841 98.3754 221.377 96.7427 220.388 94.1339L214.778 96.2592C216.206 100.03 218.579 102.934 221.972 104.671L224.707 99.3311ZM220.416 94.2087C219.433 91.392 218.877 87.4424 218.877 82.2251H212.877C212.877 87.7819 213.458 92.48 214.75 96.1845L220.416 94.2087ZM218.877 82.2251C218.877 77.0031 219.435 73.1002 220.409 70.3673L214.757 68.3525C213.457 71.9991 212.877 76.6729 212.877 82.2251H218.877ZM220.388 70.4226C221.377 67.8138 222.841 66.1811 224.707 65.2254L221.972 59.885C218.579 61.6229 216.206 64.5266 214.778 68.2972L220.388 70.4226ZM224.763 65.1959C226.786 64.1057 229.818 63.4287 234.107 63.4287V57.4287C229.299 57.4287 225.153 58.1694 221.916 59.9145L224.763 65.1959ZM234.001 66.0409C231.911 66.0409 229.878 66.4719 228.209 67.6608L231.69 72.5476C232.011 72.3188 232.679 72.0409 234.001 72.0409V66.0409ZM228.123 67.724C226.326 69.1029 225.487 71.3032 225.081 73.4905L230.98 74.5858C231.285 72.9455 231.725 72.5231 231.776 72.4844L228.123 67.724ZM225.085 73.4702C224.674 75.6007 224.498 78.5601 224.498 82.2251H230.498C230.498 78.6601 230.676 76.1616 230.976 74.6062L225.085 73.4702ZM224.498 82.2251C224.498 85.8963 224.675 88.8789 225.081 91.066L230.98 89.9707C230.676 88.3301 230.498 85.7839 230.498 82.2251H224.498ZM225.081 91.066C225.487 93.2533 226.326 95.4536 228.123 96.8325L231.776 92.0721C231.725 92.0333 231.285 91.611 230.98 89.9707L225.081 91.066ZM228.33 96.9778C229.978 98.0342 231.962 98.4092 234.001 98.4092V92.4092C232.628 92.4092 231.911 92.1463 231.569 91.9268L228.33 96.9778ZM234.001 98.4092C236.059 98.4092 238.117 98.0531 239.756 96.921L236.347 91.9836C236.139 92.1274 235.495 92.4092 234.001 92.4092V98.4092ZM239.792 96.8957C241.707 95.5314 242.61 93.3094 243.027 91.066L237.128 89.9707C236.833 91.5549 236.386 91.9556 236.311 92.0089L239.792 96.8957ZM243.005 91.1708C243.504 88.9336 243.717 85.9087 243.717 82.2251H237.717C237.717 85.7714 237.503 88.2754 237.149 89.8659L243.005 91.1708ZM243.717 82.2251C243.717 78.5487 243.505 75.5447 243 73.3619L237.154 74.7144C237.502 76.2175 237.717 78.6714 237.717 82.2251H243.717ZM243.027 73.4905C242.61 71.2471 241.707 69.0251 239.792 67.6608L236.311 72.5476C236.386 72.6009 236.833 73.0015 237.128 74.5858L243.027 73.4905ZM239.878 67.724C238.218 66.4508 236.109 66.0409 234.001 66.0409V72.0409C235.446 72.0409 236.037 72.3399 236.226 72.4844L239.878 67.724Z" fill="#070C11" mask="url(#path-4-outside-1_105_4112)"/>
</svg>
