<svg width="640" height="180" viewBox="0 0 640 180" fill="none" xmlns="http://www.w3.org/2000/svg">
<rect width="640" height="180" rx="8" fill="#EDF2F6"/>
<path d="M59.436 58.4C61.228 58.4 62.6373 58.5867 63.664 58.96C64.6907 59.3333 65.4187 59.9773 65.848 60.892C66.296 61.8067 66.52 63.0853 66.52 64.728C66.52 66.3707 66.3053 67.6493 65.876 68.564C65.4653 69.4787 64.784 70.1227 63.832 70.496C62.88 70.8507 61.592 71.028 59.968 71.028C59.1093 71.028 58.2693 70.9907 57.448 70.916C56.6267 70.8413 55.8613 70.748 55.152 70.636C54.4427 70.524 53.836 70.412 53.332 70.3C52.828 70.1693 52.4827 70.048 52.296 69.936L52.38 67.808C53.4813 67.808 54.62 67.808 55.796 67.808C56.9907 67.808 58.1667 67.808 59.324 67.808C60.0707 67.7893 60.6493 67.696 61.06 67.528C61.4893 67.36 61.788 67.052 61.956 66.604C62.1427 66.156 62.236 65.5307 62.236 64.728C62.236 63.9067 62.1427 63.272 61.956 62.824C61.788 62.376 61.4893 62.068 61.06 61.9C60.6493 61.7133 60.0707 61.62 59.324 61.62C57.6067 61.62 56.132 61.6293 54.9 61.648C53.668 61.6667 52.8373 61.704 52.408 61.76L51.988 58.68C52.772 58.5867 53.5093 58.5213 54.2 58.484C54.8907 58.4467 55.6373 58.428 56.44 58.428C57.2613 58.4093 58.26 58.4 59.436 58.4ZM56.272 58.68V78H51.988V58.68H56.272ZM76.3793 63.804C77.5553 63.804 78.5353 63.9627 79.3193 64.28C80.1219 64.5787 80.7286 65.1013 81.1393 65.848C81.5686 66.576 81.7833 67.584 81.7833 68.872V78H78.4793L77.8913 75.004L77.6393 74.584V68.844C77.6206 68.1907 77.4526 67.7147 77.1353 67.416C76.8366 67.1173 76.2673 66.968 75.4273 66.968C74.6993 66.968 73.8033 66.996 72.7393 67.052C71.6753 67.0893 70.5833 67.1453 69.4633 67.22L69.0713 64.476C69.7433 64.3453 70.5179 64.2333 71.3953 64.14C72.2726 64.0467 73.1499 63.972 74.0273 63.916C74.9046 63.8413 75.6886 63.804 76.3793 63.804ZM80.0753 69.488L80.0473 71.812L73.9153 71.84C73.4113 71.84 73.0473 71.9613 72.8233 72.204C72.5993 72.4467 72.4873 72.7733 72.4873 73.184V73.856C72.4873 74.3227 72.6179 74.6867 72.8793 74.948C73.1593 75.1907 73.5793 75.312 74.1393 75.312C74.6246 75.312 75.1473 75.2093 75.7073 75.004C76.2859 74.7987 76.8553 74.5093 77.4153 74.136C77.9753 73.7627 78.4699 73.324 78.8993 72.82V74.612C78.7499 74.892 78.5073 75.2467 78.1713 75.676C77.8539 76.0867 77.4433 76.4973 76.9393 76.908C76.4353 77.3 75.8379 77.636 75.1473 77.916C74.4753 78.196 73.7099 78.336 72.8513 78.336C72.0113 78.336 71.2553 78.1867 70.5833 77.888C69.9113 77.5893 69.3793 77.1507 68.9873 76.572C68.5953 75.9933 68.3993 75.2747 68.3993 74.416V72.988C68.3993 71.8867 68.7726 71.028 69.5193 70.412C70.2659 69.796 71.2926 69.488 72.5993 69.488H80.0753ZM91.5621 63.804C92.0474 63.804 92.5887 63.832 93.1861 63.888C93.8021 63.9253 94.4087 64.0093 95.0061 64.14C95.6221 64.252 96.1821 64.42 96.6861 64.644L96.2381 67.248C95.4727 67.2293 94.7541 67.2107 94.0821 67.192C93.4101 67.1733 92.8034 67.164 92.2621 67.164C91.4221 67.164 90.7501 67.276 90.2461 67.5C89.7607 67.724 89.4154 68.1253 89.2101 68.704C89.0047 69.264 88.9021 70.048 88.9021 71.056C88.9021 72.0827 89.0047 72.8853 89.2101 73.464C89.4154 74.0427 89.7607 74.444 90.2461 74.668C90.7501 74.892 91.4221 75.004 92.2621 75.004C92.5607 75.004 92.9434 74.9947 93.4101 74.976C93.8767 74.9573 94.3807 74.9387 94.9221 74.92C95.4634 74.8827 95.9954 74.8267 96.5181 74.752L96.9101 77.384C96.1634 77.72 95.3141 77.9627 94.3621 78.112C93.4101 78.2613 92.4674 78.336 91.5341 78.336C89.8167 78.336 88.4447 78.1027 87.4181 77.636C86.4101 77.1507 85.6821 76.376 85.2341 75.312C84.7861 74.248 84.5621 72.8293 84.5621 71.056C84.5621 69.2827 84.7861 67.864 85.2341 66.8C85.6821 65.736 86.4194 64.9707 87.4461 64.504C88.4727 64.0373 89.8447 63.804 91.5621 63.804ZM112.696 64.168V78H108.636V64.168H112.696ZM103.456 64.168V78H99.4235V64.168H103.456ZM108.916 64.168L108.888 67.052H103.288V64.168H108.916ZM125.258 63.832C127.013 63.832 128.263 64.4667 129.01 65.736C129.757 67.0053 130.13 68.8253 130.13 71.196C130.13 73.044 129.934 74.4907 129.542 75.536C129.15 76.5813 128.562 77.3187 127.778 77.748C127.013 78.1587 126.051 78.364 124.894 78.364C123.923 78.364 122.981 78.224 122.066 77.944C121.17 77.664 120.386 77.1973 119.714 76.544L119.966 74.696C120.601 74.8827 121.17 75.0507 121.674 75.2C122.178 75.3307 122.757 75.396 123.41 75.396C124.007 75.396 124.483 75.2933 124.838 75.088C125.193 74.8827 125.445 74.4813 125.594 73.884C125.762 73.268 125.846 72.3813 125.846 71.224C125.846 70.0853 125.771 69.2173 125.622 68.62C125.473 68.004 125.23 67.584 124.894 67.36C124.577 67.1173 124.147 66.996 123.606 66.996C122.99 66.996 122.43 67.1173 121.926 67.36C121.422 67.584 120.853 67.9107 120.218 68.34L119.686 66.436C120.059 65.932 120.535 65.484 121.114 65.092C121.711 64.7 122.365 64.392 123.074 64.168C123.783 63.944 124.511 63.832 125.258 63.832ZM119.518 64.168L119.938 66.688L120.302 67.108V76.096L120.162 76.432C120.218 76.992 120.255 77.5707 120.274 78.168C120.311 78.784 120.321 79.3907 120.302 79.988V83.32H116.186V64.168H119.518ZM139.581 63.804C141.317 63.804 142.708 64.0467 143.753 64.532C144.798 64.9987 145.545 65.764 145.993 66.828C146.46 67.892 146.693 69.32 146.693 71.112C146.693 72.8667 146.46 74.276 145.993 75.34C145.545 76.404 144.798 77.1693 143.753 77.636C142.708 78.1027 141.317 78.336 139.581 78.336C137.845 78.336 136.454 78.1027 135.409 77.636C134.364 77.1693 133.608 76.404 133.141 75.34C132.674 74.276 132.441 72.8667 132.441 71.112C132.441 69.32 132.674 67.892 133.141 66.828C133.608 65.764 134.364 64.9987 135.409 64.532C136.454 64.0467 137.845 63.804 139.581 63.804ZM139.581 66.828C138.872 66.828 138.312 66.9493 137.901 67.192C137.49 67.4347 137.201 67.864 137.033 68.48C136.865 69.096 136.781 69.9733 136.781 71.112C136.781 72.232 136.865 73.1 137.033 73.716C137.201 74.332 137.49 74.7613 137.901 75.004C138.312 75.228 138.872 75.34 139.581 75.34C140.29 75.34 140.85 75.228 141.261 75.004C141.672 74.7613 141.952 74.332 142.101 73.716C142.269 73.1 142.353 72.232 142.353 71.112C142.353 69.9733 142.269 69.096 142.101 68.48C141.952 67.864 141.672 67.4347 141.261 67.192C140.85 66.9493 140.29 66.828 139.581 66.828ZM161.984 64.168V66.912H156.552C155.712 66.912 155.245 67.3507 155.152 68.228C154.965 69.7213 154.722 71.0373 154.424 72.176C154.125 73.3147 153.742 74.3507 153.276 75.284C152.828 76.2173 152.249 77.1227 151.54 78H148.348C149.02 76.8427 149.561 75.6853 149.972 74.528C150.382 73.352 150.709 72.176 150.952 71C151.194 69.824 151.381 68.6387 151.512 67.444C151.642 66.3613 152.016 65.5493 152.632 65.008C153.248 64.448 154.144 64.168 155.32 64.168H161.984ZM151.092 77.86L150.784 81.92H148.04V77.86H151.092ZM164.448 75.144V78H148.04V75.144H164.448ZM164.448 77.86V81.92H161.732L161.424 77.86H164.448ZM162.32 64.168V78H158.4V64.168H162.32ZM174.161 63.804C175.337 63.804 176.317 63.9627 177.101 64.28C177.903 64.5787 178.51 65.1013 178.921 65.848C179.35 66.576 179.565 67.584 179.565 68.872V78H176.261L175.673 75.004L175.421 74.584V68.844C175.402 68.1907 175.234 67.7147 174.917 67.416C174.618 67.1173 174.049 66.968 173.209 66.968C172.481 66.968 171.585 66.996 170.521 67.052C169.457 67.0893 168.365 67.1453 167.245 67.22L166.853 64.476C167.525 64.3453 168.299 64.2333 169.177 64.14C170.054 64.0467 170.931 63.972 171.809 63.916C172.686 63.8413 173.47 63.804 174.161 63.804ZM177.857 69.488L177.829 71.812L171.697 71.84C171.193 71.84 170.829 71.9613 170.605 72.204C170.381 72.4467 170.269 72.7733 170.269 73.184V73.856C170.269 74.3227 170.399 74.6867 170.661 74.948C170.941 75.1907 171.361 75.312 171.921 75.312C172.406 75.312 172.929 75.2093 173.489 75.004C174.067 74.7987 174.637 74.5093 175.197 74.136C175.757 73.7627 176.251 73.324 176.681 72.82V74.612C176.531 74.892 176.289 75.2467 175.953 75.676C175.635 76.0867 175.225 76.4973 174.721 76.908C174.217 77.3 173.619 77.636 172.929 77.916C172.257 78.196 171.491 78.336 170.633 78.336C169.793 78.336 169.037 78.1867 168.365 77.888C167.693 77.5893 167.161 77.1507 166.769 76.572C166.377 75.9933 166.181 75.2747 166.181 74.416V72.988C166.181 71.8867 166.554 71.028 167.301 70.412C168.047 69.796 169.074 69.488 170.381 69.488H177.857ZM203.231 64.168C202.895 65.2133 202.597 66.1 202.335 66.828C202.093 67.5373 201.859 68.1347 201.635 68.62C201.411 69.0867 201.15 69.4693 200.851 69.768C200.571 70.048 200.226 70.2627 199.815 70.412C199.405 70.5427 198.891 70.6453 198.275 70.72V70.832C198.91 70.9253 199.442 71.0467 199.871 71.196C200.319 71.3453 200.702 71.5693 201.019 71.868C201.337 72.148 201.617 72.5493 201.859 73.072C202.121 73.576 202.391 74.2293 202.671 75.032C202.97 75.8347 203.306 76.824 203.679 78H199.479C199.031 76.712 198.658 75.6853 198.359 74.92C198.061 74.1547 197.79 73.576 197.547 73.184C197.305 72.792 197.034 72.5307 196.735 72.4C196.455 72.2693 196.091 72.204 195.643 72.204L195.587 69.46C196.017 69.46 196.381 69.3853 196.679 69.236C196.978 69.068 197.239 68.7973 197.463 68.424C197.706 68.032 197.958 67.4907 198.219 66.8C198.481 66.1093 198.789 65.232 199.143 64.168H203.231ZM186.263 64.168C186.618 65.232 186.926 66.1093 187.187 66.8C187.467 67.4907 187.719 68.032 187.943 68.424C188.186 68.7973 188.447 69.068 188.727 69.236C189.026 69.3853 189.39 69.46 189.819 69.46L189.791 72.204C189.362 72.204 188.998 72.2693 188.699 72.4C188.419 72.5307 188.158 72.792 187.915 73.184C187.673 73.576 187.402 74.1547 187.103 74.92C186.805 75.6853 186.422 76.712 185.955 78H181.755C182.129 76.824 182.455 75.8347 182.735 75.032C183.034 74.2293 183.305 73.576 183.547 73.072C183.809 72.5493 184.098 72.148 184.415 71.868C184.733 71.5693 185.106 71.3453 185.535 71.196C185.983 71.0467 186.525 70.9253 187.159 70.832V70.72C186.543 70.6453 186.03 70.5427 185.619 70.412C185.209 70.2627 184.854 70.048 184.555 69.768C184.275 69.4693 184.014 69.0867 183.771 68.62C183.547 68.1347 183.314 67.5373 183.071 66.828C182.829 66.1 182.53 65.2133 182.175 64.168H186.263ZM191.695 69.46V72.204H189.119V69.46H191.695ZM194.551 64.168V67.752C194.551 68.256 194.505 68.7693 194.411 69.292C194.318 69.8147 194.178 70.3 193.991 70.748C194.141 71.1773 194.271 71.6347 194.383 72.12C194.495 72.6053 194.551 73.044 194.551 73.436V78H190.911V73.436C190.911 73.044 190.967 72.6053 191.079 72.12C191.21 71.6347 191.35 71.1773 191.499 70.748C191.294 70.3 191.145 69.8147 191.051 69.292C190.977 68.7693 190.939 68.256 190.939 67.752V64.168H194.551ZM196.315 69.46V72.204H193.795V69.46H196.315ZM213.262 63.804C214.438 63.804 215.418 63.9627 216.202 64.28C217.005 64.5787 217.611 65.1013 218.022 65.848C218.451 66.576 218.666 67.584 218.666 68.872V78H215.362L214.774 75.004L214.522 74.584V68.844C214.503 68.1907 214.335 67.7147 214.018 67.416C213.719 67.1173 213.15 66.968 212.31 66.968C211.582 66.968 210.686 66.996 209.622 67.052C208.558 67.0893 207.466 67.1453 206.346 67.22L205.954 64.476C206.626 64.3453 207.401 64.2333 208.278 64.14C209.155 64.0467 210.033 63.972 210.91 63.916C211.787 63.8413 212.571 63.804 213.262 63.804ZM216.958 69.488L216.93 71.812L210.798 71.84C210.294 71.84 209.93 71.9613 209.706 72.204C209.482 72.4467 209.37 72.7733 209.37 73.184V73.856C209.37 74.3227 209.501 74.6867 209.762 74.948C210.042 75.1907 210.462 75.312 211.022 75.312C211.507 75.312 212.03 75.2093 212.59 75.004C213.169 74.7987 213.738 74.5093 214.298 74.136C214.858 73.7627 215.353 73.324 215.782 72.82V74.612C215.633 74.892 215.39 75.2467 215.054 75.676C214.737 76.0867 214.326 76.4973 213.822 76.908C213.318 77.3 212.721 77.636 212.03 77.916C211.358 78.196 210.593 78.336 209.734 78.336C208.894 78.336 208.138 78.1867 207.466 77.888C206.794 77.5893 206.262 77.1507 205.87 76.572C205.478 75.9933 205.282 75.2747 205.282 74.416V72.988C205.282 71.8867 205.655 71.028 206.402 70.412C207.149 69.796 208.175 69.488 209.482 69.488H216.958ZM64.476 98.168V100.912H59.044C58.204 100.912 57.7373 101.351 57.644 102.228C57.4573 103.721 57.2147 105.037 56.916 106.176C56.6173 107.315 56.2347 108.351 55.768 109.284C55.32 110.217 54.7413 111.123 54.032 112H50.84C51.512 110.843 52.0533 109.685 52.464 108.528C52.8747 107.352 53.2013 106.176 53.444 105C53.6867 103.824 53.8733 102.639 54.004 101.444C54.1347 100.361 54.508 99.5493 55.124 99.008C55.74 98.448 56.636 98.168 57.812 98.168H64.476ZM53.584 111.86L53.276 115.92H50.532V111.86H53.584ZM66.94 109.144V112H50.532V109.144H66.94ZM66.94 111.86V115.92H64.224L63.916 111.86H66.94ZM64.812 98.168V112H60.892V98.168H64.812ZM75.87 97.804C77.606 97.804 78.9967 98.0467 80.042 98.532C81.0874 98.9987 81.834 99.764 82.282 100.828C82.7487 101.892 82.982 103.32 82.982 105.112C82.982 106.867 82.7487 108.276 82.282 109.34C81.834 110.404 81.0874 111.169 80.042 111.636C78.9967 112.103 77.606 112.336 75.87 112.336C74.134 112.336 72.7434 112.103 71.698 111.636C70.6527 111.169 69.8967 110.404 69.43 109.34C68.9634 108.276 68.73 106.867 68.73 105.112C68.73 103.32 68.9634 101.892 69.43 100.828C69.8967 99.764 70.6527 98.9987 71.698 98.532C72.7434 98.0467 74.134 97.804 75.87 97.804ZM75.87 100.828C75.1607 100.828 74.6007 100.949 74.19 101.192C73.7794 101.435 73.49 101.864 73.322 102.48C73.154 103.096 73.07 103.973 73.07 105.112C73.07 106.232 73.154 107.1 73.322 107.716C73.49 108.332 73.7794 108.761 74.19 109.004C74.6007 109.228 75.1607 109.34 75.87 109.34C76.5794 109.34 77.1394 109.228 77.55 109.004C77.9607 108.761 78.2407 108.332 78.39 107.716C78.558 107.1 78.642 106.232 78.642 105.112C78.642 103.973 78.558 103.096 78.39 102.48C78.2407 101.864 77.9607 101.435 77.55 101.192C77.1394 100.949 76.5794 100.828 75.87 100.828ZM112.54 103.544V106.176H91.792V103.544H112.54ZM133.939 92.68L133.799 95.9H125.763L125.539 99.54L128.367 99.848C129.543 99.96 130.523 100.184 131.307 100.52C132.109 100.856 132.744 101.295 133.211 101.836C133.677 102.377 134.013 103.003 134.219 103.712C134.424 104.421 134.527 105.215 134.527 106.092C134.527 106.932 134.424 107.735 134.219 108.5C134.013 109.247 133.659 109.909 133.155 110.488C132.669 111.067 131.988 111.524 131.111 111.86C130.233 112.177 129.113 112.336 127.751 112.336C126.855 112.336 125.837 112.28 124.699 112.168C123.579 112.075 122.44 111.935 121.283 111.748L121.675 108.472C122.589 108.565 123.476 108.649 124.335 108.724C125.212 108.78 125.987 108.808 126.659 108.808C127.648 108.808 128.395 108.705 128.899 108.5C129.403 108.295 129.748 107.987 129.935 107.576C130.14 107.147 130.261 106.615 130.299 105.98C130.317 105.364 130.243 104.879 130.075 104.524C129.925 104.151 129.664 103.861 129.291 103.656C128.936 103.451 128.46 103.311 127.863 103.236C127.284 103.143 126.565 103.068 125.707 103.012L123.299 102.732C122.907 102.676 122.589 102.517 122.347 102.256C122.104 101.976 121.992 101.64 122.011 101.248L122.487 92.68H133.939ZM144.488 92.288C146.336 92.288 147.801 92.6147 148.884 93.268C149.985 93.9213 150.769 94.9853 151.236 96.46C151.721 97.916 151.964 99.876 151.964 102.34C151.964 104.804 151.721 106.773 151.236 108.248C150.769 109.704 149.985 110.759 148.884 111.412C147.801 112.065 146.336 112.392 144.488 112.392C142.64 112.392 141.165 112.065 140.064 111.412C138.981 110.759 138.207 109.704 137.74 108.248C137.273 106.773 137.04 104.804 137.04 102.34C137.04 99.876 137.273 97.916 137.74 96.46C138.207 94.9853 138.981 93.9213 140.064 93.268C141.165 92.6147 142.64 92.288 144.488 92.288ZM144.46 95.648C143.844 95.648 143.331 95.7507 142.92 95.956C142.509 96.1613 142.183 96.5067 141.94 96.992C141.697 97.4773 141.52 98.1587 141.408 99.036C141.315 99.8947 141.268 100.996 141.268 102.34C141.268 103.665 141.315 104.767 141.408 105.644C141.52 106.521 141.697 107.203 141.94 107.688C142.183 108.173 142.509 108.519 142.92 108.724C143.331 108.929 143.844 109.032 144.46 109.032C145.095 109.032 145.617 108.929 146.028 108.724C146.457 108.519 146.793 108.173 147.036 107.688C147.297 107.203 147.475 106.521 147.568 105.644C147.68 104.767 147.736 103.665 147.736 102.34C147.736 100.996 147.68 99.8947 147.568 99.036C147.475 98.1587 147.297 97.4773 147.036 96.992C146.793 96.5067 146.457 96.1613 146.028 95.956C145.617 95.7507 145.095 95.648 144.46 95.648ZM159.072 92.288C160.267 92.288 161.219 92.4747 161.928 92.848C162.637 93.2027 163.141 93.8 163.44 94.64C163.739 95.48 163.888 96.6187 163.888 98.056C163.888 99.4747 163.739 100.604 163.44 101.444C163.141 102.284 162.637 102.891 161.928 103.264C161.219 103.637 160.267 103.824 159.072 103.824C157.896 103.824 156.953 103.637 156.244 103.264C155.553 102.891 155.049 102.284 154.732 101.444C154.433 100.604 154.284 99.4747 154.284 98.056C154.284 96.6187 154.433 95.48 154.732 94.64C155.049 93.8 155.553 93.2027 156.244 92.848C156.953 92.4747 157.896 92.288 159.072 92.288ZM159.072 94.584C158.624 94.584 158.279 94.6773 158.036 94.864C157.793 95.0507 157.616 95.396 157.504 95.9C157.411 96.3853 157.364 97.104 157.364 98.056C157.364 99.008 157.411 99.736 157.504 100.24C157.616 100.725 157.793 101.061 158.036 101.248C158.279 101.435 158.624 101.528 159.072 101.528C159.539 101.528 159.893 101.435 160.136 101.248C160.379 101.061 160.547 100.725 160.64 100.24C160.752 99.736 160.808 99.008 160.808 98.056C160.808 97.104 160.752 96.3853 160.64 95.9C160.547 95.396 160.379 95.0507 160.136 94.864C159.893 94.6773 159.539 94.584 159.072 94.584ZM173.1 92.68L161.536 112H158.932L170.496 92.68H173.1ZM172.988 100.828C174.183 100.828 175.125 101.015 175.816 101.388C176.525 101.743 177.029 102.34 177.328 103.18C177.627 104.001 177.776 105.131 177.776 106.568C177.776 107.987 177.627 109.125 177.328 109.984C177.029 110.824 176.525 111.431 175.816 111.804C175.125 112.159 174.183 112.336 172.988 112.336C171.812 112.336 170.869 112.159 170.16 111.804C169.469 111.431 168.965 110.824 168.648 109.984C168.349 109.125 168.2 107.987 168.2 106.568C168.2 105.131 168.349 104.001 168.648 103.18C168.965 102.34 169.469 101.743 170.16 101.388C170.869 101.015 171.812 100.828 172.988 100.828ZM172.96 103.124C172.512 103.124 172.157 103.217 171.896 103.404C171.653 103.572 171.485 103.908 171.392 104.412C171.299 104.897 171.252 105.616 171.252 106.568C171.252 107.52 171.299 108.248 171.392 108.752C171.485 109.256 171.653 109.601 171.896 109.788C172.157 109.956 172.512 110.04 172.96 110.04C173.427 110.04 173.781 109.956 174.024 109.788C174.267 109.601 174.444 109.256 174.556 108.752C174.668 108.248 174.724 107.52 174.724 106.568C174.724 105.616 174.668 104.897 174.556 104.412C174.444 103.908 174.267 103.572 174.024 103.404C173.781 103.217 173.427 103.124 172.96 103.124Z" fill="#070C11"/>
<path d="M483.179 37.9679C490.002 37.9679 495.386 39.0311 499.33 41.1576C503.381 43.2841 506.26 46.7396 507.966 51.5242C509.778 56.2024 510.684 62.635 510.684 70.8219C510.684 78.9025 509.778 85.3351 507.966 90.1197C506.26 94.9042 503.381 98.3598 499.33 100.486C495.386 102.506 490.002 103.516 483.179 103.516C476.463 103.516 471.079 102.506 467.028 100.486C463.084 98.3598 460.259 94.9042 458.553 90.1197C456.847 85.3351 455.994 78.9025 455.994 70.8219C455.994 62.635 456.847 56.2024 458.553 51.5242C460.259 46.7396 463.084 43.2841 467.028 41.1576C471.079 39.0311 476.463 37.9679 483.179 37.9679ZM563.295 40.2007L497.252 150.246H482.38L548.423 40.2007H563.295ZM483.179 51.0457C480.621 51.0457 478.595 51.5773 477.103 52.6406C475.717 53.7038 474.757 55.6708 474.224 58.5415C473.691 61.3059 473.425 65.3994 473.425 70.8219C473.425 76.2444 473.691 80.391 474.224 83.2618C474.757 86.1325 475.717 88.0995 477.103 89.1628C478.595 90.1197 480.621 90.5981 483.179 90.5981C485.845 90.5981 487.87 90.1197 489.256 89.1628C490.748 88.0995 491.761 86.1325 492.294 83.2618C492.934 80.391 493.254 76.2444 493.254 70.8219C493.254 65.3994 492.934 61.3059 492.294 58.5415C491.761 55.6708 490.748 53.7038 489.256 52.6406C487.87 51.5773 485.845 51.0457 483.179 51.0457ZM562.655 86.611C569.371 86.611 574.702 87.6742 578.646 89.8007C582.697 91.8208 585.576 95.2232 587.282 100.008C589.094 104.792 590 111.225 590 119.306C590 127.386 589.094 133.872 587.282 138.763C585.576 143.547 582.697 146.95 578.646 148.97C574.702 150.99 569.371 152 562.655 152C555.832 152 550.449 150.99 546.504 148.97C542.56 146.95 539.681 143.547 537.869 138.763C536.163 133.872 535.31 127.386 535.31 119.306C535.31 111.225 536.163 104.792 537.869 100.008C539.681 95.2232 542.56 91.8208 546.504 89.8007C550.449 87.6742 555.832 86.611 562.655 86.611ZM562.495 99.5293C559.937 99.5293 557.911 100.061 556.419 101.124C555.033 102.187 554.073 104.154 553.54 107.025C553.007 109.79 552.741 113.883 552.741 119.306C552.741 124.728 553.007 128.875 553.54 131.745C554.073 134.616 555.033 136.583 556.419 137.646C557.911 138.603 559.937 139.082 562.495 139.082C565.16 139.082 567.186 138.603 568.572 137.646C570.064 136.583 571.077 134.616 571.61 131.745C572.25 128.875 572.57 124.728 572.57 119.306C572.57 113.883 572.25 109.79 571.61 107.025C571.077 104.154 570.064 102.187 568.572 101.124C567.186 100.061 565.16 99.5293 562.495 99.5293Z" fill="#F15152"/>
<path d="M490.02 91.8534L490.026 91.85L490.033 91.8465C494.452 89.5271 497.561 85.7595 499.379 80.6693C501.278 75.6473 502.19 69.0158 502.19 60.854C502.19 52.5945 501.28 45.9574 499.377 41.0334C497.56 35.9487 494.454 32.1843 490.04 29.8654C485.793 27.5779 480.133 26.5 473.185 26.5C466.331 26.5 460.68 27.5817 456.337 29.8616L456.329 29.8654L456.322 29.8694C452.008 32.1949 448.96 35.966 447.147 41.0475C445.357 45.9619 444.5 52.5926 444.5 60.854C444.5 69.0172 445.359 75.6425 447.146 80.6555C448.958 85.7396 452.007 89.5124 456.322 91.8387L456.343 91.85L456.364 91.8607C460.7 94.0224 466.34 95.0486 473.185 95.0486C480.129 95.0486 485.78 94.0249 490.02 91.8534ZM554.587 31.0047L555.95 28.7328H553.3H538.429H537.579L537.142 29.4609L471.099 139.506L469.736 141.778H472.385H487.257H488.106L488.543 141.05L554.587 31.0047ZM465.703 48.8576L465.703 48.8576L465.705 48.8475C466.209 46.133 467.06 44.6127 468.001 43.8785C469.156 43.0648 470.834 42.5778 473.185 42.5778C475.684 42.5778 477.33 43.0817 478.348 43.8628L478.37 43.879L478.391 43.8944C479.424 44.6299 480.323 46.1415 480.825 48.8475L480.831 48.8798L480.838 48.9118C481.439 51.5062 481.759 55.4622 481.759 60.854C481.759 66.2422 481.439 70.2586 480.836 72.9677L480.83 72.9938L480.825 73.0201C480.324 75.7183 479.429 77.2291 478.4 77.9669C477.371 78.6731 475.702 79.1302 473.185 79.1302C470.83 79.1302 469.138 78.6939 467.973 77.9671C467.043 77.2247 466.204 75.7078 465.705 73.0201C465.197 70.286 464.93 66.2484 464.93 60.854C464.93 55.4565 465.197 51.4783 465.703 48.8576ZM526.458 129.289L526.465 129.308L526.472 129.326C528.394 134.401 531.5 138.121 535.826 140.337C540.066 142.508 545.717 143.532 552.661 143.532C559.499 143.532 565.092 142.508 569.329 140.341C573.764 138.127 576.879 134.401 578.697 129.307C580.593 124.185 581.506 117.504 581.506 109.338C581.506 101.176 580.594 94.5446 578.695 89.5226C576.879 84.4365 573.769 80.7153 569.343 78.5012C565.1 76.2202 559.5 75.1431 552.661 75.1431C545.716 75.1431 540.058 76.2199 535.812 78.505C531.493 80.7216 528.392 84.4391 526.472 89.5085L526.467 89.5223L526.462 89.5362C524.674 94.5492 523.816 101.174 523.816 109.338C523.816 117.503 524.675 124.176 526.458 129.289ZM545.019 97.3412L545.021 97.3311C545.525 94.6166 546.376 93.0964 547.317 92.3621C548.472 91.5484 550.149 91.0614 552.501 91.0614C555 91.0614 556.646 91.5653 557.664 92.3464L557.686 92.3625L557.707 92.378C558.74 93.1135 559.639 94.6251 560.141 97.3311L560.147 97.3634L560.154 97.3954C560.755 99.9898 561.075 103.946 561.075 109.338C561.075 114.726 560.755 118.742 560.152 121.451L560.146 121.477L560.141 121.504C559.64 124.202 558.745 125.713 557.716 126.451C556.687 127.157 555.017 127.614 552.501 127.614C550.146 127.614 548.454 127.177 547.289 126.451C546.359 125.708 545.52 124.191 545.021 121.504C544.513 118.77 544.246 114.732 544.246 109.338C544.246 103.94 544.513 99.9619 545.019 97.3412Z" stroke="#070C11" stroke-width="3"/>
</svg>
